<?xml version="1.0" encoding="UTF-8"?>
<!--Generator: Apple Native CoreSVG 149-->
<!DOCTYPE svg
PUBLIC "-//W3C//DTD SVG 1.1//EN"
       "http://www.w3.org/Graphics/SVG/1.1/DTD/svg11.dtd">
<svg version="1.1" xmlns="http://www.w3.org/2000/svg" xmlns:xlink="http://www.w3.org/1999/xlink" width="3300" height="2200">
 <!--glyph: "uni100811.medium", point size: 100.000000, font version: "Version 16.0d18e1", template writer version: "8"-->
 <g id="Notes">
  <rect height="2200" id="artboard" style="fill:white;opacity:1" width="3300" x="0" y="0"/>
  <line id="" style="fill:none;stroke:black;opacity:1;stroke-width:0.5;" x1="263" x2="3036" y1="292" y2="292"/>
  <text style="stroke:none;fill:black;font-family:-apple-system,&quot;SF Pro Display&quot;,&quot;SF Pro Text&quot;,Helvetica,sans-serif;font-weight:bold;" transform="matrix(1 0 0 1 263 322)">Weight/Scale Variations</text>
  <text style="stroke:none;fill:black;font-family:-apple-system,&quot;SF Pro Display&quot;,&quot;SF Pro Text&quot;,Helvetica,sans-serif;text-anchor:middle;" transform="matrix(1 0 0 1 559.711 322)">Ultralight</text>
  <text style="stroke:none;fill:black;font-family:-apple-system,&quot;SF Pro Display&quot;,&quot;SF Pro Text&quot;,Helvetica,sans-serif;text-anchor:middle;" transform="matrix(1 0 0 1 856.422 322)">Thin</text>
  <text style="stroke:none;fill:black;font-family:-apple-system,&quot;SF Pro Display&quot;,&quot;SF Pro Text&quot;,Helvetica,sans-serif;text-anchor:middle;" transform="matrix(1 0 0 1 1153.13 322)">Light</text>
  <text style="stroke:none;fill:black;font-family:-apple-system,&quot;SF Pro Display&quot;,&quot;SF Pro Text&quot;,Helvetica,sans-serif;text-anchor:middle;" transform="matrix(1 0 0 1 1449.84 322)">Regular</text>
  <text style="stroke:none;fill:black;font-family:-apple-system,&quot;SF Pro Display&quot;,&quot;SF Pro Text&quot;,Helvetica,sans-serif;text-anchor:middle;" transform="matrix(1 0 0 1 1746.56 322)">Medium</text>
  <text style="stroke:none;fill:black;font-family:-apple-system,&quot;SF Pro Display&quot;,&quot;SF Pro Text&quot;,Helvetica,sans-serif;text-anchor:middle;" transform="matrix(1 0 0 1 2043.27 322)">Semibold</text>
  <text style="stroke:none;fill:black;font-family:-apple-system,&quot;SF Pro Display&quot;,&quot;SF Pro Text&quot;,Helvetica,sans-serif;text-anchor:middle;" transform="matrix(1 0 0 1 2339.98 322)">Bold</text>
  <text style="stroke:none;fill:black;font-family:-apple-system,&quot;SF Pro Display&quot;,&quot;SF Pro Text&quot;,Helvetica,sans-serif;text-anchor:middle;" transform="matrix(1 0 0 1 2636.69 322)">Heavy</text>
  <text style="stroke:none;fill:black;font-family:-apple-system,&quot;SF Pro Display&quot;,&quot;SF Pro Text&quot;,Helvetica,sans-serif;text-anchor:middle;" transform="matrix(1 0 0 1 2933.4 322)">Black</text>
  <line id="" style="fill:none;stroke:black;opacity:1;stroke-width:0.5;" x1="263" x2="3036" y1="1903" y2="1903"/>
  <g id="" transform="matrix(1 0 0 1 263 1933)">
   <path d="M9.24805 0.830078C13.5547 0.830078 17.1387-2.74414 17.1387-7.05078C17.1387-11.3574 13.5449-14.9316 9.23828-14.9316C4.94141-14.9316 1.36719-11.3574 1.36719-7.05078C1.36719-2.74414 4.95117 0.830078 9.24805 0.830078ZM9.24805-0.654297C5.70312-0.654297 2.87109-3.49609 2.87109-7.05078C2.87109-10.6055 5.69336-13.4473 9.23828-13.4473C12.793-13.4473 15.6348-10.6055 15.6445-7.05078C15.6543-3.49609 12.8027-0.654297 9.24805-0.654297ZM6.39648-6.31836L8.50586-6.31836L8.50586-4.19922C8.50586-3.75977 8.79883-3.45703 9.22852-3.45703C9.67773-3.45703 9.9707-3.75977 9.9707-4.19922L9.9707-6.31836L12.0996-6.31836C12.5391-6.31836 12.8418-6.61133 12.8418-7.04102C12.8418-7.48047 12.5391-7.7832 12.0996-7.7832L9.9707-7.7832L9.9707-9.89258C9.9707-10.3418 9.67773-10.6445 9.22852-10.6445C8.79883-10.6445 8.50586-10.3418 8.50586-9.89258L8.50586-7.7832L6.39648-7.7832C5.94727-7.7832 5.64453-7.48047 5.64453-7.04102C5.64453-6.61133 5.94727-6.31836 6.39648-6.31836Z"/>
  </g>
  <g id="" transform="matrix(1 0 0 1 281.506 1933)">
   <path d="M11.709 2.91016C17.1582 2.91016 21.6699-1.61133 21.6699-7.05078C21.6699-12.5 17.1484-17.0117 11.6992-17.0117C6.25977-17.0117 1.74805-12.5 1.74805-7.05078C1.74805-1.61133 6.26953 2.91016 11.709 2.91016ZM11.709 1.25C7.09961 1.25 3.41797-2.44141 3.41797-7.05078C3.41797-11.6602 7.08984-15.3516 11.6992-15.3516C16.3086-15.3516 20-11.6602 20.0098-7.05078C20.0195-2.44141 16.3184 1.25 11.709 1.25ZM7.98828-6.23047L10.8789-6.23047L10.8789-3.32031C10.8789-2.83203 11.2109-2.5 11.6895-2.5C12.1777-2.5 12.5195-2.83203 12.5195-3.32031L12.5195-6.23047L15.4297-6.23047C15.918-6.23047 16.25-6.5625 16.25-7.04102C16.25-7.5293 15.918-7.87109 15.4297-7.87109L12.5195-7.87109L12.5195-10.7617C12.5195-11.2695 12.1777-11.6016 11.6895-11.6016C11.2109-11.6016 10.8789-11.2598 10.8789-10.7617L10.8789-7.87109L7.98828-7.87109C7.48047-7.87109 7.14844-7.5293 7.14844-7.04102C7.14844-6.5625 7.49023-6.23047 7.98828-6.23047Z"/>
  </g>
  <g id="" transform="matrix(1 0 0 1 304.924 1933)">
   <path d="M14.9707 5.66406C21.9336 5.66406 27.6953-0.0976562 27.6953-7.05078C27.6953-14.0137 21.9238-19.7754 14.9609-19.7754C8.00781-19.7754 2.25586-14.0137 2.25586-7.05078C2.25586-0.0976562 8.01758 5.66406 14.9707 5.66406ZM14.9707 3.84766C8.93555 3.84766 4.08203-1.01562 4.08203-7.05078C4.08203-13.0957 8.92578-17.9492 14.9609-17.9492C21.0059-17.9492 25.8594-13.0957 25.8691-7.05078C25.8789-1.01562 21.0156 3.84766 14.9707 3.84766ZM10.0586-6.14258L14.0625-6.14258L14.0625-2.12891C14.0625-1.5918 14.4336-1.2207 14.9512-1.2207C15.4883-1.2207 15.8594-1.5918 15.8594-2.12891L15.8594-6.14258L19.8828-6.14258C20.4102-6.14258 20.791-6.51367 20.791-7.03125C20.791-7.56836 20.4199-7.94922 19.8828-7.94922L15.8594-7.94922L15.8594-11.9531C15.8594-12.5098 15.4883-12.8809 14.9512-12.8809C14.4336-12.8809 14.0625-12.5 14.0625-11.9531L14.0625-7.94922L10.0586-7.94922C9.50195-7.94922 9.13086-7.56836 9.13086-7.03125C9.13086-6.51367 9.51172-6.14258 10.0586-6.14258Z"/>
  </g>
  <text style="stroke:none;fill:black;font-family:-apple-system,&quot;SF Pro Display&quot;,&quot;SF Pro Text&quot;,Helvetica,sans-serif;font-weight:bold;" transform="matrix(1 0 0 1 263 1953)">Design Variations</text>
  <text style="stroke:none;fill:black;font-family:-apple-system,&quot;SF Pro Display&quot;,&quot;SF Pro Text&quot;,Helvetica,sans-serif;" transform="matrix(1 0 0 1 263 1971)">Symbols are supported in up to nine weights and three scales.</text>
  <text style="stroke:none;fill:black;font-family:-apple-system,&quot;SF Pro Display&quot;,&quot;SF Pro Text&quot;,Helvetica,sans-serif;" transform="matrix(1 0 0 1 263 1989)">For optimal layout with text and other symbols, vertically align</text>
  <text style="stroke:none;fill:black;font-family:-apple-system,&quot;SF Pro Display&quot;,&quot;SF Pro Text&quot;,Helvetica,sans-serif;" transform="matrix(1 0 0 1 263 2007)">symbols with the adjacent text.</text>
  <line id="" style="fill:none;stroke:#00AEEF;stroke-width:0.5;opacity:1.0;" x1="776" x2="776" y1="1919" y2="1933"/>
  <g id="" transform="matrix(1 0 0 1 776 1933)">
   <path d="M3.31055 0.126953C3.82812 0.126953 4.08203-0.0683594 4.26758-0.605469L5.52734-4.0625L11.2891-4.0625L12.5488-0.605469C12.7344-0.0683594 12.9883 0.126953 13.4961 0.126953C14.0137 0.126953 14.3457-0.185547 14.3457-0.673828C14.3457-0.839844 14.3164-0.986328 14.2383-1.20117L9.6582-13.3887C9.43359-13.9941 9.0332-14.2871 8.4082-14.2871C7.80273-14.2871 7.39258-13.9941 7.17773-13.3984L2.59766-1.19141C2.51953-0.976562 2.49023-0.830078 2.49023-0.664062C2.49023-0.175781 2.80273 0.126953 3.31055 0.126953ZM6.00586-5.53711L8.37891-12.1094L8.42773-12.1094L10.8008-5.53711Z"/>
  </g>
  <line id="" style="fill:none;stroke:#00AEEF;stroke-width:0.5;opacity:1.0;" x1="792.836" x2="792.836" y1="1919" y2="1933"/>
  <text style="stroke:none;fill:black;font-family:-apple-system,&quot;SF Pro Display&quot;,&quot;SF Pro Text&quot;,Helvetica,sans-serif;font-weight:bold;" transform="matrix(1 0 0 1 776 1953)">Margins</text>
  <text style="stroke:none;fill:black;font-family:-apple-system,&quot;SF Pro Display&quot;,&quot;SF Pro Text&quot;,Helvetica,sans-serif;" transform="matrix(1 0 0 1 776 1971)">Leading and trailing margins on the left and right side of each symbol</text>
  <text style="stroke:none;fill:black;font-family:-apple-system,&quot;SF Pro Display&quot;,&quot;SF Pro Text&quot;,Helvetica,sans-serif;" transform="matrix(1 0 0 1 776 1989)">can be adjusted by modifying the x-location of the margin guidelines.</text>
  <text style="stroke:none;fill:black;font-family:-apple-system,&quot;SF Pro Display&quot;,&quot;SF Pro Text&quot;,Helvetica,sans-serif;" transform="matrix(1 0 0 1 776 2007)">Modifications are automatically applied proportionally to all</text>
  <text style="stroke:none;fill:black;font-family:-apple-system,&quot;SF Pro Display&quot;,&quot;SF Pro Text&quot;,Helvetica,sans-serif;" transform="matrix(1 0 0 1 776 2025)">scales and weights.</text>
  <g id="" transform="matrix(1 0 0 1 1289 1933)">
   <path d="M2.8418 1.86523L4.54102 3.57422C5.40039 4.44336 6.38672 4.38477 7.31445 3.35938L17.4902-7.85156C17.7539-7.76367 18.0273-7.7832 18.3398-7.8418L19.4043-8.03711L20.0684-7.36328L20.0293-6.80664C19.9902-6.30859 20.1172-5.92773 20.6055-5.44922L21.3672-4.70703C21.8457-4.22852 22.4609-4.19922 22.9297-4.66797L25.8398-7.58789C26.3086-8.05664 26.2891-8.65234 25.8105-9.13086L25.0391-9.89258C24.5605-10.3711 24.1895-10.5273 23.7109-10.4883L23.1348-10.4395L22.4902-11.0742L22.7344-12.1973C22.8613-12.7637 22.7051-13.2031 22.1191-13.7891L19.9219-15.9766C16.582-19.2969 12.1484-19.2188 9.25781-16.3281C8.83789-15.918 8.80859-15.3418 9.04297-14.9512C9.27734-14.5898 9.73633-14.3555 10.3809-14.5215C11.8457-14.8633 13.3691-14.9219 14.7949-13.9844L14.209-12.5293C14.0137-12.0508 13.9844-11.6504 14.1113-11.2891L3.04688-0.898438C2.06055 0.0195312 1.98242 0.996094 2.8418 1.86523ZM10.752-15.957C13.1836-17.7344 16.4746-17.4316 18.7012-15.2051L21.1328-12.793C21.3672-12.5586 21.4062-12.373 21.3379-12.0312L21.0156-10.5469L22.5195-9.0625L23.5059-9.12109C23.7598-9.13086 23.8379-9.11133 24.0332-8.91602L24.6094-8.33984L22.168-5.89844L21.5918-6.47461C21.3965-6.66992 21.3672-6.74805 21.377-7.01172L21.4453-7.98828L19.9512-9.47266L18.4277-9.21875C18.1055-9.15039 17.959-9.17969 17.7148-9.41406L15.7129-11.416C15.459-11.6504 15.4297-11.8164 15.5859-12.1875L16.4648-14.2773C14.9023-15.7324 12.8711-16.3574 10.8398-15.7617C10.6836-15.7227 10.625-15.8496 10.752-15.957ZM5.27344 2.30469L4.10156 1.14258C3.63281 0.683594 3.74023 0.341797 4.14062-0.0195312L14.9512-10.1953L16.416-8.71094L6.42578 2.27539C6.07422 2.67578 5.74219 2.77344 5.27344 2.30469Z"/>
  </g>
  <text style="stroke:none;fill:black;font-family:-apple-system,&quot;SF Pro Display&quot;,&quot;SF Pro Text&quot;,Helvetica,sans-serif;font-weight:bold;" transform="matrix(1 0 0 1 1289 1953)">Exporting</text>
  <text style="stroke:none;fill:black;font-family:-apple-system,&quot;SF Pro Display&quot;,&quot;SF Pro Text&quot;,Helvetica,sans-serif;" transform="matrix(1 0 0 1 1289 1971)">Symbols should be outlined when exporting to ensure the</text>
  <text style="stroke:none;fill:black;font-family:-apple-system,&quot;SF Pro Display&quot;,&quot;SF Pro Text&quot;,Helvetica,sans-serif;" transform="matrix(1 0 0 1 1289 1989)">design is preserved when submitting to Xcode.</text>
  <text id="template-version" style="stroke:none;fill:black;font-family:-apple-system,&quot;SF Pro Display&quot;,&quot;SF Pro Text&quot;,Helvetica,sans-serif;text-anchor:end;" transform="matrix(1 0 0 1 3036 1933)">Template v.2.0</text>
  <text style="stroke:none;fill:black;font-family:-apple-system,&quot;SF Pro Display&quot;,&quot;SF Pro Text&quot;,Helvetica,sans-serif;text-anchor:end;" transform="matrix(1 0 0 1 3036 1951)">Requires Xcode 12 or greater</text>
  <text style="stroke:none;fill:black;font-family:-apple-system,&quot;SF Pro Display&quot;,&quot;SF Pro Text&quot;,Helvetica,sans-serif;text-anchor:end;" transform="matrix(1 0 0 1 3036 1969)">Generated from drop</text>
  <text style="stroke:none;fill:black;font-family:-apple-system,&quot;SF Pro Display&quot;,&quot;SF Pro Text&quot;,Helvetica,sans-serif;text-anchor:end;" transform="matrix(1 0 0 1 3036 1987)">Typeset at 100 points</text>
  <text style="stroke:none;fill:black;font-family:-apple-system,&quot;SF Pro Display&quot;,&quot;SF Pro Text&quot;,Helvetica,sans-serif;" transform="matrix(1 0 0 1 263 726)">Small</text>
  <text style="stroke:none;fill:black;font-family:-apple-system,&quot;SF Pro Display&quot;,&quot;SF Pro Text&quot;,Helvetica,sans-serif;" transform="matrix(1 0 0 1 263 1156)">Medium</text>
  <text style="stroke:none;fill:black;font-family:-apple-system,&quot;SF Pro Display&quot;,&quot;SF Pro Text&quot;,Helvetica,sans-serif;" transform="matrix(1 0 0 1 263 1586)">Large</text>
 </g>
 <g id="Guides">
  <g id="H-reference" style="fill:#27AAE1;stroke:none;" transform="matrix(1 0 0 1 339 696)">
   <path d="M0.976562 0L3.66211 0L12.9883-24.4629L45.752-24.4629L55.127 0L57.7637 0L30.6152-70.459L28.125-70.459ZM29.3457-67.1387L29.4434-67.1387L44.873-26.709L13.8672-26.709Z"/>
  </g>
  <line id="Baseline-S" style="fill:none;stroke:#27AAE1;opacity:1;stroke-width:0.5;" x1="263" x2="3036" y1="696" y2="696"/>
  <line id="Capline-S" style="fill:none;stroke:#27AAE1;opacity:1;stroke-width:0.5;" x1="263" x2="3036" y1="625.541" y2="625.541"/>
  <g id="H-reference" style="fill:#27AAE1;stroke:none;" transform="matrix(1 0 0 1 339 1126)">
   <path d="M0.976562 0L3.66211 0L12.9883-24.4629L45.752-24.4629L55.127 0L57.7637 0L30.6152-70.459L28.125-70.459ZM29.3457-67.1387L29.4434-67.1387L44.873-26.709L13.8672-26.709Z"/>
  </g>
  <line id="Baseline-M" style="fill:none;stroke:#27AAE1;opacity:1;stroke-width:0.5;" x1="263" x2="3036" y1="1126" y2="1126"/>
  <line id="Capline-M" style="fill:none;stroke:#27AAE1;opacity:1;stroke-width:0.5;" x1="263" x2="3036" y1="1055.54" y2="1055.54"/>
  <g id="H-reference" style="fill:#27AAE1;stroke:none;" transform="matrix(1 0 0 1 339 1556)">
   <path d="M0.976562 0L3.66211 0L12.9883-24.4629L45.752-24.4629L55.127 0L57.7637 0L30.6152-70.459L28.125-70.459ZM29.3457-67.1387L29.4434-67.1387L44.873-26.709L13.8672-26.709Z"/>
  </g>
  <line id="Baseline-L" style="fill:none;stroke:#27AAE1;opacity:1;stroke-width:0.5;" x1="263" x2="3036" y1="1556" y2="1556"/>
  <line id="Capline-L" style="fill:none;stroke:#27AAE1;opacity:1;stroke-width:0.5;" x1="263" x2="3036" y1="1485.54" y2="1485.54"/>
  <line id="left-margin" style="fill:none;stroke:#00AEEF;stroke-width:0.5;opacity:1.0;" x1="1407.27" x2="1407.27" y1="1030.79" y2="1150.12"/>
  <line id="right-margin" style="fill:none;stroke:#00AEEF;stroke-width:0.5;opacity:1.0;" x1="1492.42" x2="1492.42" y1="1030.79" y2="1150.12"/>
 </g>
 <g id="Symbols">
  <g id="Black-L" transform="matrix(1 0 0 1 2873.39 1556)">
   <path d="M60.0098 33.4961C87.0605 33.4961 108.74 12.3047 108.74-14.209C108.74-28.6133 101.562-42.6758 95.8496-53.418L72.9004-96.2891C70.0195-101.416 65.5273-104.199 60.0098-104.199C54.3945-104.199 49.8535-101.367 47.0703-96.2402L24.1211-53.418C18.4082-42.6758 11.2793-28.6133 11.2793-14.209C11.2793 12.3047 32.9102 33.4961 60.0098 33.4961ZM60.0098 13.0859C44.1895 13.0859 31.6895 0.976562 31.6895-14.209C31.6895-23.9258 36.6211-33.1055 42.334-43.7988L59.5703-75.9766C59.7656-76.416 60.3027-76.416 60.5469-75.9766L77.6855-43.7988C83.3984-33.1055 88.3301-23.9258 88.3301-14.209C88.3301 0.976562 75.7812 13.0859 60.0098 13.0859Z"/>
  </g>
  <g id="Heavy-L" transform="matrix(1 0 0 1 2578.05 1556)">
   <path d="M58.6426 32.1289C84.9609 32.1289 106.006 11.5723 106.006-14.1602C106.006-28.2715 99.0234-42.041 93.3105-52.7832L70.3125-95.6055C67.6758-100.293 63.6719-102.783 58.6426-102.783C53.5156-102.783 49.4629-100.244 46.875-95.5566L23.9746-52.7832C18.2617-42.041 11.2793-28.2715 11.2793-14.1602C11.2793 11.5723 32.3242 32.1289 58.6426 32.1289ZM58.6426 14.4531C42.0898 14.4531 28.9551 1.80664 28.9551-14.1602C28.9551-24.2188 34.0332-33.7402 39.7461-44.4336L58.0566-78.5645C58.3008-79.1504 58.9844-79.1504 59.3262-78.5645L77.5391-44.4336C83.252-33.7402 88.3301-24.2188 88.3301-14.1602C88.3301 1.80664 75.1953 14.4531 58.6426 14.4531Z"/>
  </g>
  <g id="Bold-L" transform="matrix(1 0 0 1 2282.87 1556)">
   <path d="M57.0801 30.6641C82.5684 30.6641 102.93 10.7422 102.93-14.1602C102.93-27.8809 96.0938-41.3086 90.3809-52.002L67.4805-94.8242C65.0879-99.0723 61.5723-101.221 57.0801-101.221C52.5391-101.221 48.9746-99.0234 46.7285-94.7754L23.8281-52.002C18.1152-41.3086 11.2793-27.8809 11.2793-14.1602C11.2793 10.7422 31.6406 30.6641 57.0801 30.6641ZM57.0801 16.0156C39.7461 16.0156 25.8789 2.68555 25.8789-14.1602C25.8789-24.5605 31.1523-34.4238 36.8652-45.1172L56.3965-81.4941C56.7383-82.2266 57.5195-82.2266 57.9102-81.4941L77.3438-45.1172C83.0566-34.4238 88.3301-24.5605 88.3301-14.1602C88.3301 2.68555 74.4629 16.0156 57.0801 16.0156Z"/>
  </g>
  <g id="Semibold-L" transform="matrix(1 0 0 1 1987.21 1556)">
   <path d="M56.0547 29.5898C80.957 29.5898 100.83 10.2051 100.83-14.1113C100.83-27.5879 94.1406-40.8203 88.4277-51.5137L65.4785-94.2871C63.3301-98.1934 60.1074-100.146 56.0547-100.146C51.9043-100.146 48.6816-98.1445 46.582-94.2871L23.6816-51.5137C17.9688-40.8203 11.2793-27.5879 11.2793-14.1113C11.2793 10.2051 31.1523 29.5898 56.0547 29.5898ZM56.0547 17.0898C38.0859 17.0898 23.7793 3.32031 23.7793-14.1113C23.7793-24.8047 29.1504-34.8633 34.8633-45.5566L55.2246-83.4961C55.6152-84.375 56.543-84.3262 56.9824-83.4961L77.2461-45.5566C82.959-34.9121 88.3301-24.8047 88.3301-14.1113C88.3301 3.32031 73.9746 17.0898 56.0547 17.0898Z"/>
  </g>
  <g id="Medium-L" transform="matrix(1 0 0 1 1691.31 1556)">
   <path d="M55.2734 28.8086C79.6875 28.8086 99.2188 9.76562 99.2188-14.1113C99.2188-27.3926 92.627-40.4297 86.9141-51.0742L64.0137-93.8477C61.9629-97.5586 59.0332-99.3164 55.2734-99.3164C51.3672-99.3164 48.4375-97.5098 46.4844-93.8965L23.584-51.0742C17.8711-40.4297 11.2793-27.3926 11.2793-14.1113C11.2793 9.76562 30.8105 28.8086 55.2734 28.8086ZM55.2734 17.9199C36.8652 17.9199 22.168 3.75977 22.168-14.1113C22.168-24.9512 27.6367-35.2539 33.3496-45.9473L54.3457-85.0098C54.7852-85.9863 55.8105-85.9375 56.25-85.0098L77.1484-45.9473C82.8613-35.2539 88.3301-24.9512 88.3301-14.1113C88.3301 3.75977 73.6328 17.9199 55.2734 17.9199Z"/>
  </g>
  <g id="Regular-L" transform="matrix(1 0 0 1 1395.65 1556)">
   <path d="M54.1992 27.7832C78.0762 27.7832 97.1191 9.17969 97.1191-14.0625C97.1191-27.0996 90.625-39.9414 84.9121-50.5859L62.0605-93.3594C60.2051-96.6797 57.6172-98.2422 54.1992-98.2422C50.7324-98.2422 48.1445-96.6797 46.3867-93.3594L23.4863-50.5859C17.7734-39.9414 11.2793-27.0996 11.2793-14.0625C11.2793 9.17969 30.3223 27.7832 54.1992 27.7832ZM54.1992 18.9941C35.2539 18.9941 20.0684 4.39453 20.0684-14.0625C20.0684-25.1953 25.6836-35.6934 31.3965-46.3867L53.2227-87.0117C53.7109-88.0859 54.7852-88.0371 55.3223-87.0117L77.0508-46.3867C82.7637-35.7422 88.3301-25.1953 88.3301-14.0625C88.3301 4.39453 73.1445 18.9941 54.1992 18.9941Z"/>
  </g>
  <g id="Light-L" transform="matrix(1 0 0 1 1099.94 1556)">
   <path d="M53.1738 26.8555C76.5137 26.8555 95.1172 8.74023 95.1172-14.0137C95.1172-26.8066 88.7207-39.4043 83.0078-50.0488L60.1562-92.7734C58.4473-95.8496 56.2012-97.168 53.1738-97.168C50.0977-97.168 47.8516-95.8008 46.2402-92.8223L23.3887-50.0488C17.6758-39.4043 11.2793-26.8066 11.2793-14.0137C11.2793 8.74023 29.8828 26.8555 53.1738 26.8555ZM53.1738 20.0684C33.6914 20.0684 18.0664 5.0293 18.0664-14.0137C18.0664-25.3906 23.7305-36.1328 29.4922-46.8262L51.709-88.1348C52.4902-89.6484 54.0527-89.6484 54.834-88.1348L76.9043-46.8262C82.6172-36.1816 88.3301-25.3906 88.3301-14.0137C88.3301 5.0293 72.7051 20.0684 53.1738 20.0684Z"/>
  </g>
  <g id="Thin-L" transform="matrix(1 0 0 1 804.567 1556)">
   <path d="M51.8555 25.6348C74.4141 25.6348 92.4316 8.10547 92.4316-13.916C92.4316-26.3672 86.1816-38.6719 80.4688-49.3164L57.6172-91.9922C56.2012-94.6777 54.3945-95.7031 51.8555-95.7031C49.2188-95.7031 47.4121-94.6289 46.0449-92.0898L23.2422-49.3164C17.5293-38.6719 11.2793-26.3672 11.2793-13.916C11.2793 8.10547 29.2969 25.6348 51.8555 25.6348ZM51.8555 21.5332C31.5918 21.5332 15.3809 5.85938 15.3809-13.916C15.3809-25.6348 21.1914-36.6699 27.002-47.3633L49.707-89.6484C50.7812-91.748 53.0273-91.748 54.1504-89.6484L76.7578-47.3633C82.4707-36.7188 88.3301-25.6348 88.3301-13.916C88.3301 5.85938 72.0703 21.5332 51.8555 21.5332Z"/>
  </g>
  <g id="Ultralight-L" transform="matrix(1 0 0 1 508.564 1556)">
   <path d="M51.1719 25C73.3398 25 91.0156 7.76367 91.0156-13.8672C91.0156-26.1719 84.8633-38.3301 79.1504-48.9258L56.3477-91.6016C55.0293-94.0918 53.4668-94.9707 51.1719-94.9707C48.7793-94.9707 47.2168-93.9941 45.9961-91.6992L23.1445-48.9258C17.4316-38.3301 11.2793-26.1719 11.2793-13.8672C11.2793 7.76367 29.0039 25 51.1719 25ZM51.1719 22.2656C30.5664 22.2656 14.0137 6.25 14.0137-13.8672C14.0137-25.7812 19.9219-36.9141 25.6836-47.6074L48.6816-90.3809C49.9512-92.8223 52.5391-92.8223 53.8086-90.3809L76.709-47.6074C82.4219-37.0117 88.3301-25.7812 88.3301-13.8672C88.3301 6.25 71.7773 22.2656 51.1719 22.2656Z"/>
  </g>
  <g id="Black-M" transform="matrix(1 0 0 1 2885.6 1126)">
   <path d="M47.8027 19.3359C69.4824 19.3359 86.8652 2.29492 86.8652-18.9453C86.8652-30.4199 81.1523-41.6016 76.7578-49.9512L58.9355-83.1543C56.4941-87.5977 52.5879-89.9414 47.8027-89.9414C42.9688-89.9414 39.0137-87.5 36.6211-83.1055L18.8477-49.9512C14.4043-41.6016 8.74023-30.4199 8.74023-18.9453C8.74023 2.29492 26.123 19.3359 47.8027 19.3359ZM47.8027 0.927734C36.2793 0.927734 27.1484-7.91016 27.1484-18.9453C27.1484-26.123 30.8105-32.959 35.2539-41.2598L47.3633-63.8672C47.5586-64.2578 48.0469-64.3066 48.291-63.8672L60.3516-41.2598C64.7949-32.959 68.457-26.123 68.457-18.9453C68.457-7.91016 59.3262 0.927734 47.8027 0.927734Z"/>
  </g>
  <g id="Heavy-M" transform="matrix(1 0 0 1 2590.13 1126)">
   <path d="M46.582 18.1152C67.5781 18.1152 84.375 1.66016 84.375-18.8965C84.375-30.127 78.8574-41.0156 74.4141-49.3652L56.6406-82.5684C54.3945-86.5723 50.8789-88.7207 46.582-88.7207C42.1875-88.7207 38.623-86.5234 36.4746-82.5195L18.7012-49.3652C14.3066-41.0156 8.74023-30.127 8.74023-18.8965C8.74023 1.66016 25.5371 18.1152 46.582 18.1152ZM46.582 2.14844C34.375 2.14844 24.707-7.17773 24.707-18.8965C24.707-26.416 28.5156-33.5449 32.9102-41.8457L46.0938-66.4551C46.3379-66.8457 46.8262-66.8945 47.0703-66.4551L60.2051-41.8457C64.6484-33.5449 68.457-26.416 68.457-18.8965C68.457-7.17773 58.7891 2.14844 46.582 2.14844Z"/>
  </g>
  <g id="Bold-M" transform="matrix(1 0 0 1 2294.79 1126)">
   <path d="M45.2148 16.748C65.4785 16.748 81.6406 0.878906 81.6406-18.8965C81.6406-29.7852 76.2695-40.3809 71.8262-48.6816L54.0527-81.8848C52.0508-85.4492 49.0234-87.3535 45.2148-87.3535C41.3086-87.3535 38.2324-85.4492 36.3281-81.8359L18.5547-48.6816C14.1113-40.3809 8.74023-29.7852 8.74023-18.8965C8.74023 0.878906 24.9512 16.748 45.2148 16.748ZM45.2148 3.51562C32.2266 3.51562 21.9238-6.39648 21.9238-18.8965C21.9238-26.7578 25.8789-34.1797 30.3223-42.4805L44.7266-69.2871C44.9707-69.7754 45.459-69.7754 45.752-69.2871L60.0586-42.4805C64.502-34.1797 68.457-26.7578 68.457-18.8965C68.457-6.39648 58.1543 3.51562 45.2148 3.51562Z"/>
  </g>
  <g id="Semibold-M" transform="matrix(1 0 0 1 1999.03 1126)">
   <path d="M44.2383 15.8203C63.9648 15.8203 79.7363 0.390625 79.7363-18.8965C79.7363-29.541 74.4629-39.9414 70.0195-48.2422L52.2461-81.3965C50.4395-84.7168 47.7051-86.377 44.2383-86.377C40.7227-86.377 37.9883-84.668 36.1816-81.3965L18.457-48.2422C14.0137-39.9414 8.74023-29.541 8.74023-18.8965C8.74023 0.390625 24.5117 15.8203 44.2383 15.8203ZM44.2383 4.49219C30.7617 4.49219 20.0195-5.85938 20.0195-18.8965C20.0195-26.9531 24.1211-34.6191 28.5645-42.9199L43.75-71.2891C43.9941-71.7773 44.5312-71.7773 44.7754-71.2891L59.9609-42.9199C64.3555-34.6191 68.457-26.9531 68.457-18.8965C68.457-5.85938 57.7148 4.49219 44.2383 4.49219Z"/>
  </g>
  <g id="Medium-M" transform="matrix(1 0 0 1 1703.03 1126)">
   <path d="M43.5059 15.0879C62.8906 15.0879 78.3203 0 78.3203-18.8965C78.3203-29.3457 73.0957-39.5996 68.7012-47.9004L50.9277-81.0547C49.2188-84.1309 46.7285-85.6445 43.5059-85.6445C40.2832-85.6445 37.7441-84.082 36.1328-81.0547L18.3594-47.9004C13.916-39.5996 8.74023-29.3457 8.74023-18.8965C8.74023 0 24.1699 15.0879 43.5059 15.0879ZM43.5059 5.22461C29.6875 5.22461 18.6035-5.41992 18.6035-18.8965C18.6035-27.1484 22.7539-34.9609 27.1973-43.2129L43.0664-72.7539C43.2617-73.291 43.8477-73.291 44.0918-72.7539L59.8633-43.2129C64.3066-34.9609 68.457-27.1484 68.457-18.8965C68.457-5.41992 57.373 5.22461 43.5059 5.22461Z"/>
  </g>
  <g id="Regular-M" transform="matrix(1 0 0 1 1407.27 1126)">
   <path d="M42.5781 14.1602C61.4258 14.1602 76.416-0.537109 76.416-18.8965C76.416-29.1016 71.3379-39.1602 66.8945-47.4609L49.1699-80.5664C47.6074-83.3496 45.4102-84.7168 42.5781-84.7168C39.6973-84.7168 37.5-83.3496 35.9863-80.6152L18.2617-47.4609C13.8184-39.1602 8.74023-29.1016 8.74023-18.8965C8.74023-0.537109 23.7305 14.1602 42.5781 14.1602ZM42.5781 6.15234C28.2227 6.15234 16.748-4.88281 16.748-18.8965C16.748-27.3438 20.9961-35.3516 25.4395-43.6523L42.0898-74.707C42.334-75.293 42.9199-75.2441 43.1641-74.707L59.7656-43.6523C64.209-35.4004 68.457-27.3438 68.457-18.8965C68.457-4.88281 56.9336 6.15234 42.5781 6.15234Z"/>
  </g>
  <g id="Light-M" transform="matrix(1 0 0 1 1111.46 1126)">
   <path d="M41.6992 13.3301C60.0098 13.3301 74.6094-0.976562 74.6094-18.7988C74.6094-28.8086 69.6289-38.6719 65.1855-46.9238L47.4609-80.0781C46.0938-82.5684 44.1895-83.7402 41.6992-83.7402C39.1113-83.7402 37.207-82.5684 35.8887-80.127L18.1641-46.9238C13.7207-38.6719 8.74023-28.8086 8.74023-18.7988C8.74023-0.976562 23.3398 13.3301 41.6992 13.3301ZM41.6992 7.12891C26.8066 7.12891 14.8926-4.3457 14.8926-18.7988C14.8926-27.5391 19.2383-35.7422 23.7305-44.043L40.7227-75.7324C41.2109-76.709 42.2363-76.6602 42.7246-75.7324L59.668-44.043C64.1113-35.7422 68.457-27.5391 68.457-18.7988C68.457-4.3457 56.543 7.12891 41.6992 7.12891Z"/>
  </g>
  <g id="Thin-M" transform="matrix(1 0 0 1 815.944 1126)">
   <path d="M40.4785 12.207C58.1055 12.207 72.2168-1.51367 72.2168-18.7012C72.2168-28.4668 67.334-38.0371 62.8906-46.2891L45.2148-79.3945C44.043-81.543 42.5293-82.4219 40.4785-82.4219C38.3301-82.4219 36.8164-81.4941 35.7422-79.4434L18.0176-46.2891C13.623-38.0371 8.74023-28.4668 8.74023-18.7012C8.74023-1.51367 22.8027 12.207 40.4785 12.207ZM40.4785 8.44727C24.9512 8.44727 12.5-3.56445 12.5-18.7012C12.5-27.7344 16.9922-36.2305 21.4355-44.5312L38.9648-77.0508C39.7461-78.5645 41.3086-78.5645 42.0898-77.0508L59.5215-44.5312C63.9648-36.2793 68.457-27.7344 68.457-18.7012C68.457-3.56445 56.0059 8.44727 40.4785 8.44727Z"/>
  </g>
  <g id="Ultralight-M" transform="matrix(1 0 0 1 519.867 1126)">
   <path d="M39.8438 11.6211C57.1289 11.6211 70.9473-1.80664 70.9473-18.7012C70.9473-28.2715 66.1621-37.7441 61.7676-45.9473L44.043-79.0527C43.0176-81.0059 41.6992-81.7871 39.8438-81.7871C37.9395-81.7871 36.6699-80.957 35.6445-79.1016L17.9688-45.9473C13.5254-37.7441 8.74023-28.2715 8.74023-18.7012C8.74023-1.80664 22.5586 11.6211 39.8438 11.6211ZM39.8438 9.08203C23.9746 9.08203 11.2793-3.17383 11.2793-18.7012C11.2793-27.832 15.8203-36.4746 20.3125-44.7754L38.0371-77.7832C38.9648-79.541 40.8691-79.541 41.7969-77.7832L59.4727-44.7754C63.916-36.5234 68.457-27.832 68.457-18.7012C68.457-3.17383 55.7129 9.08203 39.8438 9.08203Z"/>
  </g>
  <g id="Black-S" transform="matrix(1 0 0 1 2896.05 696)">
   <path d="M37.3535 7.42188C54.2969 7.42188 67.8711-5.85938 67.8711-22.4609C67.8711-31.4453 63.4277-40.1855 59.9609-46.7285L45.9961-72.7539C44.0918-76.1719 41.0645-78.0273 37.3535-78.0273C33.5938-78.0273 30.5176-76.123 28.6621-72.7051L14.7461-46.7285C11.2793-40.1855 6.83594-31.4453 6.83594-22.4609C6.83594-5.85938 20.4102 7.42188 37.3535 7.42188ZM37.3535-6.83594C28.2715-6.83594 21.0938-13.7695 21.0938-22.4609C21.0938-28.125 23.9746-33.4961 27.4414-39.9902L37.0117-57.8613C37.1582-58.1543 37.5488-58.2031 37.7441-57.8613L47.2656-39.9902C50.7324-33.4961 53.6133-28.125 53.6133-22.4609C53.6133-13.7695 46.4355-6.83594 37.3535-6.83594Z"/>
  </g>
  <g id="Heavy-S" transform="matrix(1 0 0 1 2600.17 696)">
   <path d="M36.5234 6.5918C52.9785 6.5918 66.2109-6.34766 66.2109-22.4609C66.2109-31.25 61.8652-39.7949 58.3984-46.3379L44.4336-72.3633C42.6758-75.4883 39.8926-77.1973 36.5234-77.1973C33.0566-77.1973 30.2734-75.4395 28.5645-72.3145L14.6484-46.3379C11.1816-39.7949 6.83594-31.25 6.83594-22.4609C6.83594-6.34766 20.0195 6.5918 36.5234 6.5918ZM36.5234-6.00586C26.9531-6.00586 19.4336-13.2812 19.4336-22.4609C19.4336-28.3203 22.4121-33.8867 25.8789-40.3809L36.2305-59.7168C36.3281-60.0098 36.6699-60.0098 36.8652-59.7168L47.168-40.3809C50.6348-33.8867 53.6133-28.3203 53.6133-22.4609C53.6133-13.2812 46.0449-6.00586 36.5234-6.00586Z"/>
  </g>
  <g id="Bold-S" transform="matrix(1 0 0 1 2304.41 696)">
   <path d="M35.5957 5.66406C51.5625 5.66406 64.3066-6.83594 64.3066-22.4609C64.3066-31.0059 60.0586-39.3555 56.5918-45.8984L42.6758-71.875C41.0645-74.7559 38.623-76.2207 35.5957-76.2207C32.4707-76.2207 30.0293-74.707 28.4668-71.875L14.5508-45.8984C11.084-39.3555 6.83594-31.0059 6.83594-22.4609C6.83594-6.83594 19.5801 5.66406 35.5957 5.66406ZM35.5957-5.0293C25.5371-5.0293 17.5293-12.7441 17.5293-22.4609C17.5293-28.5645 20.6055-34.3262 24.0723-40.8203L35.3027-61.7676C35.4492-62.0605 35.7422-62.0605 35.8887-61.7676L47.0703-40.8203C50.5371-34.3262 53.6133-28.5645 53.6133-22.4609C53.6133-12.7441 45.6055-5.0293 35.5957-5.0293Z"/>
  </g>
  <g id="Semibold-S" transform="matrix(1 0 0 1 2008.33 696)">
   <path d="M34.9121 4.98047C50.5371 4.98047 63.0371-7.22656 63.0371-22.4609C63.0371-30.8594 58.8379-39.0625 55.3711-45.5566L41.4551-71.582C39.9902-74.2188 37.7441-75.5859 34.9121-75.5859C32.0801-75.5859 29.834-74.2188 28.3691-71.5332L14.4531-45.5566C10.9863-39.0625 6.83594-30.8594 6.83594-22.4609C6.83594-7.22656 19.2871 4.98047 34.9121 4.98047ZM34.9121-4.39453C24.5117-4.39453 16.2598-12.3535 16.2598-22.4609C16.2598-28.7109 19.3848-34.6191 22.8516-41.1133L34.7168-63.1836C34.8145-63.4766 35.0586-63.4277 35.2051-63.1836L46.9727-41.1133C50.4395-34.6191 53.6133-28.7109 53.6133-22.4609C53.6133-12.3535 45.3125-4.39453 34.9121-4.39453Z"/>
  </g>
  <g id="Medium-S" transform="matrix(1 0 0 1 1712.13 696)">
   <path d="M34.4238 4.49219C49.8047 4.49219 62.0117-7.4707 62.0117-22.4609C62.0117-30.7129 57.9102-38.8672 54.4434-45.3613L40.5273-71.3379C39.1113-73.8281 37.0605-75.0977 34.4238-75.0977C31.7383-75.0977 29.6875-73.8281 28.3203-71.3379L14.4043-45.3613C10.9375-38.8672 6.83594-30.7129 6.83594-22.4609C6.83594-7.4707 19.0918 4.49219 34.4238 4.49219ZM34.4238-3.90625C23.7793-3.90625 15.2344-12.1094 15.2344-22.4609C15.2344-28.8086 18.457-34.8633 21.9238-41.3574L34.2285-64.2578C34.3262-64.5508 34.5703-64.502 34.668-64.2578L46.9238-41.3574C50.3906-34.8633 53.6133-28.8086 53.6133-22.4609C53.6133-12.1094 45.1172-3.90625 34.4238-3.90625Z"/>
  </g>
  <g id="Regular-S" transform="matrix(1 0 0 1 1416.06 696)">
   <path d="M33.7891 3.85742C48.7793 3.85742 60.7422-7.8125 60.7422-22.4609C60.7422-30.5664 56.7383-38.5254 53.2715-45.0195L39.3555-70.9961C38.0371-73.3398 36.1816-74.4629 33.7891-74.4629C31.3477-74.4629 29.4922-73.291 28.2715-70.9961L14.3555-45.0195C10.8887-38.5254 6.83594-30.5664 6.83594-22.4609C6.83594-7.8125 18.7988 3.85742 33.7891 3.85742ZM33.7891-3.27148C22.8027-3.27148 13.9648-11.7188 13.9648-22.4609C13.9648-29.0039 17.2852-35.1562 20.752-41.6504L33.6426-65.6738C33.6914-65.918 33.9355-65.918 34.0332-65.6738L46.875-41.6504C50.3418-35.1562 53.6133-29.0039 53.6133-22.4609C53.6133-11.7188 44.8242-3.27148 33.7891-3.27148Z"/>
  </g>
  <g id="Light-S" transform="matrix(1 0 0 1 1120.15 696)">
   <path d="M33.0078 3.125C47.5586 3.125 59.1309-8.20312 59.1309-22.4121C59.1309-30.3223 55.1758-38.1348 51.709-44.5801L37.8418-70.5566C36.6699-72.6074 35.1074-73.584 33.0078-73.584C30.8594-73.584 29.248-72.6074 28.1738-70.5566L14.2578-44.5801C10.791-38.1348 6.83594-30.3223 6.83594-22.4121C6.83594-8.20312 18.457 3.125 33.0078 3.125ZM33.0078-2.39258C21.5332-2.39258 12.3535-11.2305 12.3535-22.4121C12.3535-29.1504 15.7227-35.498 19.2383-41.9922L32.4219-66.6016C32.7148-67.1875 33.3496-67.1387 33.5938-66.6016L46.7773-41.9922C50.2441-35.498 53.6133-29.1504 53.6133-22.4121C53.6133-11.2305 44.4336-2.39258 33.0078-2.39258Z"/>
  </g>
  <g id="Thin-S" transform="matrix(1 0 0 1 824.489 696)">
   <path d="M31.9336 2.14844C45.8984 2.14844 57.0312-8.69141 57.0312-22.3145C57.0312-29.9805 53.1738-37.5488 49.707-44.043L35.8398-69.9707C34.8633-71.7285 33.6426-72.4609 31.9336-72.4609C30.1758-72.4609 28.9062-71.6797 28.0273-70.0195L14.1602-44.043C10.6934-37.5488 6.83594-29.9805 6.83594-22.3145C6.83594-8.69141 17.9688 2.14844 31.9336 2.14844ZM31.9336-1.26953C19.873-1.26953 10.2539-10.5957 10.2539-22.3145C10.2539-29.2969 13.7207-35.8887 17.2363-42.3828L30.8594-67.7734C31.3965-68.8477 32.5195-68.7988 33.1055-67.7734L46.6797-42.3828C50.1465-35.9375 53.6133-29.2969 53.6133-22.3145C53.6133-10.5957 43.9453-1.26953 31.9336-1.26953Z"/>
  </g>
  <g id="Ultralight-S" transform="matrix(1 0 0 1 528.339 696)">
   <path d="M31.3965 1.61133C45.0195 1.61133 55.9082-8.98438 55.9082-22.2656C55.9082-29.834 52.1484-37.2559 48.6816-43.7012L34.8145-69.6289C33.9355-71.2402 32.9102-71.875 31.3965-71.875C29.834-71.875 28.7598-71.1914 27.9297-69.6777L14.0625-43.7012C10.5957-37.2559 6.83594-29.834 6.83594-22.2656C6.83594-8.98438 17.7246 1.61133 31.3965 1.61133ZM31.3965-0.683594C19.043-0.683594 9.13086-10.2539 9.13086-22.2656C9.13086-29.4434 12.6953-36.1328 16.2109-42.627L30.0293-68.3594C30.7129-69.6777 32.1289-69.6777 32.8125-68.3594L46.582-42.627C50.0488-36.1816 53.6133-29.4434 53.6133-22.2656C53.6133-10.2539 43.7012-0.683594 31.3965-0.683594Z"/>
  </g>
 </g>
</svg>
