<?xml version="1.0" encoding="UTF-8"?>
<!--Generator: Apple Native CoreSVG 149-->
<!DOCTYPE svg
PUBLIC "-//W3C//DTD SVG 1.1//EN"
       "http://www.w3.org/Graphics/SVG/1.1/DTD/svg11.dtd">
<svg version="1.1" xmlns="http://www.w3.org/2000/svg" xmlns:xlink="http://www.w3.org/1999/xlink" width="3300" height="2200">
 <!--glyph: "uni1001C2.medium", point size: 100.000000, font version: "Version 16.0d18e1", template writer version: "8"-->
 <g id="Notes">
  <rect height="2200" id="artboard" style="fill:white;opacity:1" width="3300" x="0" y="0"/>
  <line id="" style="fill:none;stroke:black;opacity:1;stroke-width:0.5;" x1="263" x2="3036" y1="292" y2="292"/>
  <text style="stroke:none;fill:black;font-family:-apple-system,&quot;SF Pro Display&quot;,&quot;SF Pro Text&quot;,Helvetica,sans-serif;font-weight:bold;" transform="matrix(1 0 0 1 263 322)">Weight/Scale Variations</text>
  <text style="stroke:none;fill:black;font-family:-apple-system,&quot;SF Pro Display&quot;,&quot;SF Pro Text&quot;,Helvetica,sans-serif;text-anchor:middle;" transform="matrix(1 0 0 1 559.711 322)">Ultralight</text>
  <text style="stroke:none;fill:black;font-family:-apple-system,&quot;SF Pro Display&quot;,&quot;SF Pro Text&quot;,Helvetica,sans-serif;text-anchor:middle;" transform="matrix(1 0 0 1 856.422 322)">Thin</text>
  <text style="stroke:none;fill:black;font-family:-apple-system,&quot;SF Pro Display&quot;,&quot;SF Pro Text&quot;,Helvetica,sans-serif;text-anchor:middle;" transform="matrix(1 0 0 1 1153.13 322)">Light</text>
  <text style="stroke:none;fill:black;font-family:-apple-system,&quot;SF Pro Display&quot;,&quot;SF Pro Text&quot;,Helvetica,sans-serif;text-anchor:middle;" transform="matrix(1 0 0 1 1449.84 322)">Regular</text>
  <text style="stroke:none;fill:black;font-family:-apple-system,&quot;SF Pro Display&quot;,&quot;SF Pro Text&quot;,Helvetica,sans-serif;text-anchor:middle;" transform="matrix(1 0 0 1 1746.56 322)">Medium</text>
  <text style="stroke:none;fill:black;font-family:-apple-system,&quot;SF Pro Display&quot;,&quot;SF Pro Text&quot;,Helvetica,sans-serif;text-anchor:middle;" transform="matrix(1 0 0 1 2043.27 322)">Semibold</text>
  <text style="stroke:none;fill:black;font-family:-apple-system,&quot;SF Pro Display&quot;,&quot;SF Pro Text&quot;,Helvetica,sans-serif;text-anchor:middle;" transform="matrix(1 0 0 1 2339.98 322)">Bold</text>
  <text style="stroke:none;fill:black;font-family:-apple-system,&quot;SF Pro Display&quot;,&quot;SF Pro Text&quot;,Helvetica,sans-serif;text-anchor:middle;" transform="matrix(1 0 0 1 2636.69 322)">Heavy</text>
  <text style="stroke:none;fill:black;font-family:-apple-system,&quot;SF Pro Display&quot;,&quot;SF Pro Text&quot;,Helvetica,sans-serif;text-anchor:middle;" transform="matrix(1 0 0 1 2933.4 322)">Black</text>
  <line id="" style="fill:none;stroke:black;opacity:1;stroke-width:0.5;" x1="263" x2="3036" y1="1903" y2="1903"/>
  <g id="" transform="matrix(1 0 0 1 263 1933)">
   <path d="M9.24805 0.830078C13.5547 0.830078 17.1387-2.74414 17.1387-7.05078C17.1387-11.3574 13.5449-14.9316 9.23828-14.9316C4.94141-14.9316 1.36719-11.3574 1.36719-7.05078C1.36719-2.74414 4.95117 0.830078 9.24805 0.830078ZM9.24805-0.654297C5.70312-0.654297 2.87109-3.49609 2.87109-7.05078C2.87109-10.6055 5.69336-13.4473 9.23828-13.4473C12.793-13.4473 15.6348-10.6055 15.6445-7.05078C15.6543-3.49609 12.8027-0.654297 9.24805-0.654297ZM6.39648-6.31836L8.50586-6.31836L8.50586-4.19922C8.50586-3.75977 8.79883-3.45703 9.22852-3.45703C9.67773-3.45703 9.9707-3.75977 9.9707-4.19922L9.9707-6.31836L12.0996-6.31836C12.5391-6.31836 12.8418-6.61133 12.8418-7.04102C12.8418-7.48047 12.5391-7.7832 12.0996-7.7832L9.9707-7.7832L9.9707-9.89258C9.9707-10.3418 9.67773-10.6445 9.22852-10.6445C8.79883-10.6445 8.50586-10.3418 8.50586-9.89258L8.50586-7.7832L6.39648-7.7832C5.94727-7.7832 5.64453-7.48047 5.64453-7.04102C5.64453-6.61133 5.94727-6.31836 6.39648-6.31836Z"/>
  </g>
  <g id="" transform="matrix(1 0 0 1 281.506 1933)">
   <path d="M11.709 2.91016C17.1582 2.91016 21.6699-1.61133 21.6699-7.05078C21.6699-12.5 17.1484-17.0117 11.6992-17.0117C6.25977-17.0117 1.74805-12.5 1.74805-7.05078C1.74805-1.61133 6.26953 2.91016 11.709 2.91016ZM11.709 1.25C7.09961 1.25 3.41797-2.44141 3.41797-7.05078C3.41797-11.6602 7.08984-15.3516 11.6992-15.3516C16.3086-15.3516 20-11.6602 20.0098-7.05078C20.0195-2.44141 16.3184 1.25 11.709 1.25ZM7.98828-6.23047L10.8789-6.23047L10.8789-3.32031C10.8789-2.83203 11.2109-2.5 11.6895-2.5C12.1777-2.5 12.5195-2.83203 12.5195-3.32031L12.5195-6.23047L15.4297-6.23047C15.918-6.23047 16.25-6.5625 16.25-7.04102C16.25-7.5293 15.918-7.87109 15.4297-7.87109L12.5195-7.87109L12.5195-10.7617C12.5195-11.2695 12.1777-11.6016 11.6895-11.6016C11.2109-11.6016 10.8789-11.2598 10.8789-10.7617L10.8789-7.87109L7.98828-7.87109C7.48047-7.87109 7.14844-7.5293 7.14844-7.04102C7.14844-6.5625 7.49023-6.23047 7.98828-6.23047Z"/>
  </g>
  <g id="" transform="matrix(1 0 0 1 304.924 1933)">
   <path d="M14.9707 5.66406C21.9336 5.66406 27.6953-0.0976562 27.6953-7.05078C27.6953-14.0137 21.9238-19.7754 14.9609-19.7754C8.00781-19.7754 2.25586-14.0137 2.25586-7.05078C2.25586-0.0976562 8.01758 5.66406 14.9707 5.66406ZM14.9707 3.84766C8.93555 3.84766 4.08203-1.01562 4.08203-7.05078C4.08203-13.0957 8.92578-17.9492 14.9609-17.9492C21.0059-17.9492 25.8594-13.0957 25.8691-7.05078C25.8789-1.01562 21.0156 3.84766 14.9707 3.84766ZM10.0586-6.14258L14.0625-6.14258L14.0625-2.12891C14.0625-1.5918 14.4336-1.2207 14.9512-1.2207C15.4883-1.2207 15.8594-1.5918 15.8594-2.12891L15.8594-6.14258L19.8828-6.14258C20.4102-6.14258 20.791-6.51367 20.791-7.03125C20.791-7.56836 20.4199-7.94922 19.8828-7.94922L15.8594-7.94922L15.8594-11.9531C15.8594-12.5098 15.4883-12.8809 14.9512-12.8809C14.4336-12.8809 14.0625-12.5 14.0625-11.9531L14.0625-7.94922L10.0586-7.94922C9.50195-7.94922 9.13086-7.56836 9.13086-7.03125C9.13086-6.51367 9.51172-6.14258 10.0586-6.14258Z"/>
  </g>
  <text style="stroke:none;fill:black;font-family:-apple-system,&quot;SF Pro Display&quot;,&quot;SF Pro Text&quot;,Helvetica,sans-serif;font-weight:bold;" transform="matrix(1 0 0 1 263 1953)">Design Variations</text>
  <text style="stroke:none;fill:black;font-family:-apple-system,&quot;SF Pro Display&quot;,&quot;SF Pro Text&quot;,Helvetica,sans-serif;" transform="matrix(1 0 0 1 263 1971)">Symbols are supported in up to nine weights and three scales.</text>
  <text style="stroke:none;fill:black;font-family:-apple-system,&quot;SF Pro Display&quot;,&quot;SF Pro Text&quot;,Helvetica,sans-serif;" transform="matrix(1 0 0 1 263 1989)">For optimal layout with text and other symbols, vertically align</text>
  <text style="stroke:none;fill:black;font-family:-apple-system,&quot;SF Pro Display&quot;,&quot;SF Pro Text&quot;,Helvetica,sans-serif;" transform="matrix(1 0 0 1 263 2007)">symbols with the adjacent text.</text>
  <line id="" style="fill:none;stroke:#00AEEF;stroke-width:0.5;opacity:1.0;" x1="776" x2="776" y1="1919" y2="1933"/>
  <g id="" transform="matrix(1 0 0 1 776 1933)">
   <path d="M3.31055 0.126953C3.82812 0.126953 4.08203-0.0683594 4.26758-0.605469L5.52734-4.0625L11.2891-4.0625L12.5488-0.605469C12.7344-0.0683594 12.9883 0.126953 13.4961 0.126953C14.0137 0.126953 14.3457-0.185547 14.3457-0.673828C14.3457-0.839844 14.3164-0.986328 14.2383-1.20117L9.6582-13.3887C9.43359-13.9941 9.0332-14.2871 8.4082-14.2871C7.80273-14.2871 7.39258-13.9941 7.17773-13.3984L2.59766-1.19141C2.51953-0.976562 2.49023-0.830078 2.49023-0.664062C2.49023-0.175781 2.80273 0.126953 3.31055 0.126953ZM6.00586-5.53711L8.37891-12.1094L8.42773-12.1094L10.8008-5.53711Z"/>
  </g>
  <line id="" style="fill:none;stroke:#00AEEF;stroke-width:0.5;opacity:1.0;" x1="792.836" x2="792.836" y1="1919" y2="1933"/>
  <text style="stroke:none;fill:black;font-family:-apple-system,&quot;SF Pro Display&quot;,&quot;SF Pro Text&quot;,Helvetica,sans-serif;font-weight:bold;" transform="matrix(1 0 0 1 776 1953)">Margins</text>
  <text style="stroke:none;fill:black;font-family:-apple-system,&quot;SF Pro Display&quot;,&quot;SF Pro Text&quot;,Helvetica,sans-serif;" transform="matrix(1 0 0 1 776 1971)">Leading and trailing margins on the left and right side of each symbol</text>
  <text style="stroke:none;fill:black;font-family:-apple-system,&quot;SF Pro Display&quot;,&quot;SF Pro Text&quot;,Helvetica,sans-serif;" transform="matrix(1 0 0 1 776 1989)">can be adjusted by modifying the x-location of the margin guidelines.</text>
  <text style="stroke:none;fill:black;font-family:-apple-system,&quot;SF Pro Display&quot;,&quot;SF Pro Text&quot;,Helvetica,sans-serif;" transform="matrix(1 0 0 1 776 2007)">Modifications are automatically applied proportionally to all</text>
  <text style="stroke:none;fill:black;font-family:-apple-system,&quot;SF Pro Display&quot;,&quot;SF Pro Text&quot;,Helvetica,sans-serif;" transform="matrix(1 0 0 1 776 2025)">scales and weights.</text>
  <g id="" transform="matrix(1 0 0 1 1289 1933)">
   <path d="M2.8418 1.86523L4.54102 3.57422C5.40039 4.44336 6.38672 4.38477 7.31445 3.35938L17.4902-7.85156C17.7539-7.76367 18.0273-7.7832 18.3398-7.8418L19.4043-8.03711L20.0684-7.36328L20.0293-6.80664C19.9902-6.30859 20.1172-5.92773 20.6055-5.44922L21.3672-4.70703C21.8457-4.22852 22.4609-4.19922 22.9297-4.66797L25.8398-7.58789C26.3086-8.05664 26.2891-8.65234 25.8105-9.13086L25.0391-9.89258C24.5605-10.3711 24.1895-10.5273 23.7109-10.4883L23.1348-10.4395L22.4902-11.0742L22.7344-12.1973C22.8613-12.7637 22.7051-13.2031 22.1191-13.7891L19.9219-15.9766C16.582-19.2969 12.1484-19.2188 9.25781-16.3281C8.83789-15.918 8.80859-15.3418 9.04297-14.9512C9.27734-14.5898 9.73633-14.3555 10.3809-14.5215C11.8457-14.8633 13.3691-14.9219 14.7949-13.9844L14.209-12.5293C14.0137-12.0508 13.9844-11.6504 14.1113-11.2891L3.04688-0.898438C2.06055 0.0195312 1.98242 0.996094 2.8418 1.86523ZM10.752-15.957C13.1836-17.7344 16.4746-17.4316 18.7012-15.2051L21.1328-12.793C21.3672-12.5586 21.4062-12.373 21.3379-12.0312L21.0156-10.5469L22.5195-9.0625L23.5059-9.12109C23.7598-9.13086 23.8379-9.11133 24.0332-8.91602L24.6094-8.33984L22.168-5.89844L21.5918-6.47461C21.3965-6.66992 21.3672-6.74805 21.377-7.01172L21.4453-7.98828L19.9512-9.47266L18.4277-9.21875C18.1055-9.15039 17.959-9.17969 17.7148-9.41406L15.7129-11.416C15.459-11.6504 15.4297-11.8164 15.5859-12.1875L16.4648-14.2773C14.9023-15.7324 12.8711-16.3574 10.8398-15.7617C10.6836-15.7227 10.625-15.8496 10.752-15.957ZM5.27344 2.30469L4.10156 1.14258C3.63281 0.683594 3.74023 0.341797 4.14062-0.0195312L14.9512-10.1953L16.416-8.71094L6.42578 2.27539C6.07422 2.67578 5.74219 2.77344 5.27344 2.30469Z"/>
  </g>
  <text style="stroke:none;fill:black;font-family:-apple-system,&quot;SF Pro Display&quot;,&quot;SF Pro Text&quot;,Helvetica,sans-serif;font-weight:bold;" transform="matrix(1 0 0 1 1289 1953)">Exporting</text>
  <text style="stroke:none;fill:black;font-family:-apple-system,&quot;SF Pro Display&quot;,&quot;SF Pro Text&quot;,Helvetica,sans-serif;" transform="matrix(1 0 0 1 1289 1971)">Symbols should be outlined when exporting to ensure the</text>
  <text style="stroke:none;fill:black;font-family:-apple-system,&quot;SF Pro Display&quot;,&quot;SF Pro Text&quot;,Helvetica,sans-serif;" transform="matrix(1 0 0 1 1289 1989)">design is preserved when submitting to Xcode.</text>
  <text id="template-version" style="stroke:none;fill:black;font-family:-apple-system,&quot;SF Pro Display&quot;,&quot;SF Pro Text&quot;,Helvetica,sans-serif;text-anchor:end;" transform="matrix(1 0 0 1 3036 1933)">Template v.2.0</text>
  <text style="stroke:none;fill:black;font-family:-apple-system,&quot;SF Pro Display&quot;,&quot;SF Pro Text&quot;,Helvetica,sans-serif;text-anchor:end;" transform="matrix(1 0 0 1 3036 1951)">Requires Xcode 12 or greater</text>
  <text style="stroke:none;fill:black;font-family:-apple-system,&quot;SF Pro Display&quot;,&quot;SF Pro Text&quot;,Helvetica,sans-serif;text-anchor:end;" transform="matrix(1 0 0 1 3036 1969)">Generated from cloud</text>
  <text style="stroke:none;fill:black;font-family:-apple-system,&quot;SF Pro Display&quot;,&quot;SF Pro Text&quot;,Helvetica,sans-serif;text-anchor:end;" transform="matrix(1 0 0 1 3036 1987)">Typeset at 100 points</text>
  <text style="stroke:none;fill:black;font-family:-apple-system,&quot;SF Pro Display&quot;,&quot;SF Pro Text&quot;,Helvetica,sans-serif;" transform="matrix(1 0 0 1 263 726)">Small</text>
  <text style="stroke:none;fill:black;font-family:-apple-system,&quot;SF Pro Display&quot;,&quot;SF Pro Text&quot;,Helvetica,sans-serif;" transform="matrix(1 0 0 1 263 1156)">Medium</text>
  <text style="stroke:none;fill:black;font-family:-apple-system,&quot;SF Pro Display&quot;,&quot;SF Pro Text&quot;,Helvetica,sans-serif;" transform="matrix(1 0 0 1 263 1586)">Large</text>
 </g>
 <g id="Guides">
  <g id="H-reference" style="fill:#27AAE1;stroke:none;" transform="matrix(1 0 0 1 339 696)">
   <path d="M0.976562 0L3.66211 0L12.9883-24.4629L45.752-24.4629L55.127 0L57.7637 0L30.6152-70.459L28.125-70.459ZM29.3457-67.1387L29.4434-67.1387L44.873-26.709L13.8672-26.709Z"/>
  </g>
  <line id="Baseline-S" style="fill:none;stroke:#27AAE1;opacity:1;stroke-width:0.5;" x1="263" x2="3036" y1="696" y2="696"/>
  <line id="Capline-S" style="fill:none;stroke:#27AAE1;opacity:1;stroke-width:0.5;" x1="263" x2="3036" y1="625.541" y2="625.541"/>
  <g id="H-reference" style="fill:#27AAE1;stroke:none;" transform="matrix(1 0 0 1 339 1126)">
   <path d="M0.976562 0L3.66211 0L12.9883-24.4629L45.752-24.4629L55.127 0L57.7637 0L30.6152-70.459L28.125-70.459ZM29.3457-67.1387L29.4434-67.1387L44.873-26.709L13.8672-26.709Z"/>
  </g>
  <line id="Baseline-M" style="fill:none;stroke:#27AAE1;opacity:1;stroke-width:0.5;" x1="263" x2="3036" y1="1126" y2="1126"/>
  <line id="Capline-M" style="fill:none;stroke:#27AAE1;opacity:1;stroke-width:0.5;" x1="263" x2="3036" y1="1055.54" y2="1055.54"/>
  <g id="H-reference" style="fill:#27AAE1;stroke:none;" transform="matrix(1 0 0 1 339 1556)">
   <path d="M0.976562 0L3.66211 0L12.9883-24.4629L45.752-24.4629L55.127 0L57.7637 0L30.6152-70.459L28.125-70.459ZM29.3457-67.1387L29.4434-67.1387L44.873-26.709L13.8672-26.709Z"/>
  </g>
  <line id="Baseline-L" style="fill:none;stroke:#27AAE1;opacity:1;stroke-width:0.5;" x1="263" x2="3036" y1="1556" y2="1556"/>
  <line id="Capline-L" style="fill:none;stroke:#27AAE1;opacity:1;stroke-width:0.5;" x1="263" x2="3036" y1="1485.54" y2="1485.54"/>
  <line id="left-margin" style="fill:none;stroke:#00AEEF;stroke-width:0.5;opacity:1.0;" x1="1385.34" x2="1385.34" y1="1030.79" y2="1150.12"/>
  <line id="right-margin" style="fill:none;stroke:#00AEEF;stroke-width:0.5;opacity:1.0;" x1="1514.35" x2="1514.35" y1="1030.79" y2="1150.12"/>
 </g>
 <g id="Symbols">
  <g id="Black-L" transform="matrix(1 0 0 1 2845.61 1556)">
   <path d="M45.1172 16.9922L124.561 16.9922C147.168 16.9922 164.307-0.244141 164.307-22.1191C164.307-44.2871 147.217-61.4746 124.512-61.4746C117.236-75.4883 103.613-86.6211 81.543-86.6211C55.8105-86.6211 35.9375-68.1152 32.5684-44.4336C20.4102-40.1855 11.2793-29.4434 11.2793-14.8926C11.2793 3.125 24.7559 16.9922 45.1172 16.9922ZM45.6543-1.02539C34.668-1.02539 29.2969-6.68945 29.2969-14.5508C29.2969-21.582 33.6426-26.8066 43.5547-29.3945C47.8027-30.5176 48.9258-32.4219 49.5605-36.7188C52.5391-57.6172 65.3809-68.6035 81.543-68.6035C93.6035-68.6035 103.809-61.7676 110.742-48.7305C112.598-45.2148 114.6-43.9453 118.994-43.9453C137.842-43.9453 146.289-34.1309 146.289-21.7285C146.289-10.0586 137.549-1.02539 124.219-1.02539Z"/>
  </g>
  <g id="Heavy-L" transform="matrix(1 0 0 1 2550.04 1556)">
   <path d="M43.9941 15.9668L123.242 15.9668C145.264 15.9668 162.012-0.830078 162.012-22.0703C162.012-43.6523 145.117-60.1562 122.803-60.1562C115.332-74.6094 101.562-85.5469 80.3711-85.5469C55.1758-85.5469 35.4492-66.9922 32.373-43.3594C20.3613-39.3555 11.2793-28.8574 11.2793-14.5996C11.2793 2.58789 24.1211 15.9668 43.9941 15.9668ZM44.3848 0.195312C32.8125 0.195312 27.0508-5.95703 27.0508-14.3066C27.0508-21.582 31.5918-27.2949 41.6992-29.9316C45.7031-31.0059 46.8262-32.7637 47.3633-36.8164C49.9512-57.666 63.5742-69.7266 80.3711-69.7266C93.0664-69.7266 103.564-62.5488 110.498-49.2676C112.207-45.8984 114.16-44.7266 118.311-44.7266C137.109-44.7266 146.191-34.5215 146.191-21.7285C146.191-9.42383 136.816 0.195312 123.047 0.195312Z"/>
  </g>
  <g id="Bold-L" transform="matrix(1 0 0 1 2254.63 1556)">
   <path d="M42.7246 14.8438L121.68 14.8438C143.164 14.8438 159.424-1.46484 159.424-21.9727C159.424-42.9199 142.725-58.7402 120.85-58.7402C113.232-73.6328 99.2676-84.2773 79.0039-84.2773C54.4434-84.2773 34.8145-65.7227 32.1289-42.1875C20.3125-38.4277 11.2793-28.2227 11.2793-14.3066C11.2793 2.00195 23.3398 14.8438 42.7246 14.8438ZM42.9688 1.5625C30.7129 1.5625 24.5605-5.12695 24.5605-14.0137C24.5605-21.6309 29.2969-27.832 39.6973-30.5664C43.3594-31.543 44.4824-33.2031 44.9219-36.9141C47.1191-57.7637 61.5723-70.9961 79.0039-70.9961C92.5293-70.9961 103.369-63.3789 110.205-49.8535C111.816-46.6797 113.672-45.6055 117.529-45.6055C136.23-45.6055 146.094-34.9121 146.094-21.6797C146.094-8.69141 135.938 1.5625 121.777 1.5625Z"/>
  </g>
  <g id="Semibold-L" transform="matrix(1 0 0 1 1958.82 1556)">
   <path d="M41.8457 14.0625L120.654 14.0625C141.699 14.0625 157.617-1.9043 157.617-21.9238C157.617-42.4316 141.113-57.7637 119.482-57.7637C111.768-72.9492 97.7051-83.3984 78.0762-83.3984C53.9062-83.3984 34.4238-64.8438 31.9824-41.3574C20.2637-37.793 11.2793-27.7344 11.2793-14.0625C11.2793 1.61133 22.8516 14.0625 41.8457 14.0625ZM41.9922 2.49023C29.2969 2.49023 22.8516-4.58984 22.8516-13.8184C22.8516-21.6797 27.6855-28.2227 38.2812-31.0059C41.748-31.8848 42.8711-33.4961 43.2129-36.9629C45.1172-57.8125 60.1562-71.8262 78.0762-71.8262C92.1387-71.8262 103.223-63.9648 110.059-50.2441C111.572-47.2656 113.33-46.1914 116.992-46.1914C135.645-46.1914 146.045-35.2051 146.045-21.6309C146.045-8.20312 135.352 2.49023 120.898 2.49023Z"/>
  </g>
  <g id="Medium-L" transform="matrix(1 0 0 1 1662.79 1556)">
   <path d="M41.2109 13.4766L119.873 13.4766C140.625 13.4766 156.25-2.24609 156.25-21.875C156.25-42.041 139.844-57.0312 118.457-57.0312C110.693-72.4609 96.4844-82.7637 77.3438-82.7637C53.5156-82.7637 34.1309-64.209 31.8359-40.7227C20.2148-37.3047 11.2793-27.3926 11.2793-13.916C11.2793 1.26953 22.4609 13.4766 41.2109 13.4766ZM41.2109 3.22266C28.2227 3.22266 21.582-4.15039 21.582-13.623C21.582-21.7285 26.5137-28.5156 37.207-31.2988C40.5273-32.1777 41.6504-33.6914 41.9434-37.0605C43.6523-57.8125 59.082-72.4609 77.3438-72.4609C91.8457-72.4609 103.076-64.4043 109.912-50.5859C111.328-47.6562 113.086-46.6309 116.602-46.6309C135.205-46.6309 145.947-35.4004 145.947-21.6309C145.947-7.86133 134.912 3.22266 120.215 3.22266Z"/>
  </g>
  <g id="Regular-L" transform="matrix(1 0 0 1 1366.96 1556)">
   <path d="M40.3809 12.7441L118.848 12.7441C139.16 12.7441 154.492-2.68555 154.492-21.8262C154.492-41.6016 138.232-56.0547 117.139-56.0547C109.277-71.7773 94.9219-81.9336 76.4648-81.9336C53.0273-81.9336 33.6914-63.3301 31.6895-39.9414C20.166-36.6699 11.2793-26.9531 11.2793-13.6719C11.2793 0.878906 21.9238 12.7441 40.3809 12.7441ZM40.2344 4.15039C26.8066 4.15039 19.873-3.61328 19.873-13.4277C19.873-21.7285 24.9023-28.8574 35.791-31.7383C38.916-32.5684 40.0391-33.9844 40.2832-37.1094C41.6992-57.8613 57.7148-73.3398 76.4648-73.3398C91.4551-73.3398 102.93-64.9902 109.717-50.9766C111.084-48.1934 112.744-47.2656 116.064-47.2656C134.619-47.2656 145.898-35.6934 145.898-21.582C145.898-7.37305 134.326 4.15039 119.336 4.15039Z"/>
  </g>
  <g id="Light-L" transform="matrix(1 0 0 1 1070.71 1556)">
   <path d="M39.5996 11.6211L118.457 11.6211C138.379 11.6211 153.564-3.41797 153.564-22.2168C153.564-41.5039 137.549-55.6641 116.748-55.6641C108.887-71.6309 94.9219-81.9336 76.0742-81.9336C53.0273-81.9336 34.0332-63.3301 32.0312-39.9414C20.4102-36.7676 11.2793-27.2461 11.2793-14.0625C11.2793 0.0488281 21.6797 11.6211 39.5996 11.6211ZM39.5508 5.07812C25.3906 5.07812 17.8223-3.36914 17.8223-13.916C17.8223-23.1445 23.7793-30.7617 34.8633-33.6426C37.5-34.375 38.3789-35.498 38.5742-38.0371C39.8926-59.082 56.7383-75.3906 76.0742-75.3906C92.2852-75.3906 104.199-66.3574 110.986-52.1973C112.109-49.8535 113.525-49.0234 116.357-49.0234C134.766-49.0234 147.021-36.9629 147.021-22.0215C147.021-7.03125 134.717 5.07812 118.75 5.07812Z"/>
  </g>
  <g id="Thin-L" transform="matrix(1 0 0 1 774.611 1556)">
   <path d="M38.623 10.1562L117.969 10.1562C137.354 10.1562 152.344-4.44336 152.344-22.7539C152.344-41.4062 136.67-55.1758 116.26-55.1758C108.398-71.4355 94.9219-81.9336 75.5859-81.9336C53.0273-81.9336 34.4727-63.3301 32.5195-39.9414C20.752-36.8652 11.2793-27.6855 11.2793-14.5508C11.2793-1.02539 21.3379 10.1562 38.623 10.1562ZM38.623 6.39648C23.5352 6.39648 15.0391-3.07617 15.0391-14.502C15.0391-25.0488 22.2168-33.252 33.5938-36.1816C35.5957-36.7188 36.2305-37.5488 36.3281-39.209C37.5488-60.6445 55.4688-78.125 75.5859-78.125C93.3594-78.125 105.811-68.1152 112.646-53.8086C113.525-52.002 114.6-51.3672 116.748-51.3672C134.912-51.3672 148.535-38.6719 148.535-22.5586C148.535-6.64062 135.156 6.39648 118.018 6.39648Z"/>
  </g>
  <g id="Ultralight-L" transform="matrix(1 0 0 1 478.217 1556)">
   <path d="M38.1348 9.42383L117.725 9.42383C136.816 9.42383 151.709-4.98047 151.709-22.998C151.709-41.3574 136.182-54.9316 116.016-54.9316C108.154-71.3379 94.9219-81.9336 75.3418-81.9336C53.0273-81.9336 34.7168-63.3301 32.8125-39.9414C20.9473-36.9141 11.2793-27.8809 11.2793-14.7949C11.2793-1.61133 21.1426 9.42383 38.1348 9.42383ZM38.1348 7.03125C22.5586 7.03125 13.6719-2.92969 13.6719-14.8438C13.6719-26.0254 21.4355-34.5215 32.9102-37.5C34.6191-37.9395 35.1074-38.5742 35.1562-39.8438C36.377-61.4746 54.7852-79.541 75.3418-79.541C93.8965-79.541 106.641-68.9941 113.525-54.6387C114.258-53.0762 115.137-52.5879 116.943-52.5879C135.01-52.5879 149.316-39.5508 149.316-22.8516C149.316-6.44531 135.4 7.03125 117.676 7.03125Z"/>
  </g>
  <g id="Black-M" transform="matrix(1 0 0 1 2864.04 1126)">
   <path d="M36.084 6.00586L98.1934 6.00586C116.162 6.00586 129.98-7.76367 129.98-25.3906C129.98-43.0664 116.602-57.0801 98.6816-57.0801C93.2129-67.5293 83.0566-76.5625 64.6484-76.5625C44.1406-76.5625 28.7598-62.2559 25.7324-43.7988C16.0645-40.2344 8.74023-31.7383 8.74023-20.0195C8.74023-5.27344 19.9707 6.00586 36.084 6.00586ZM36.7188-9.86328C28.5645-9.86328 24.6094-13.9648 24.6094-19.7754C24.6094-25.3418 28.2227-29.0527 35.6934-31.0059C39.0625-31.8359 39.8926-33.3496 40.4297-36.7188C43.2129-53.125 52.5879-60.7422 64.6484-60.7422C73.6328-60.7422 81.3477-55.4688 86.7676-45.6055C88.2812-42.8711 89.8438-41.8457 93.2617-41.8457C107.91-41.8457 114.111-34.5703 114.111-25.0488C114.111-16.4551 107.812-9.86328 97.5098-9.86328Z"/>
  </g>
  <g id="Heavy-M" transform="matrix(1 0 0 1 2568.48 1126)">
   <path d="M35.0586 5.17578L96.7773 5.17578C114.307 5.17578 127.686-8.1543 127.686-25.1953C127.686-42.3828 114.453-55.7617 96.875-55.7617C91.2109-66.6016 80.8105-75.3418 63.4277-75.3418C43.4082-75.3418 28.0762-61.0352 25.3906-42.627C15.918-39.3066 8.74023-31.0059 8.74023-19.6289C8.74023-5.61523 19.2871 5.17578 35.0586 5.17578ZM35.498-8.78906C26.9531-8.78906 22.7051-13.2324 22.7051-19.3848C22.7051-25 26.2695-29.1016 33.9355-31.1035C37.1582-31.9336 37.9883-33.3496 38.4766-36.5723C40.8691-52.8809 50.8789-61.377 63.4277-61.377C72.9004-61.377 80.8105-55.957 86.2305-45.8496C87.6465-43.2129 89.1602-42.2363 92.4316-42.2363C107.08-42.2363 113.721-34.668 113.721-24.9023C113.721-15.8203 106.885-8.78906 96.3867-8.78906Z"/>
  </g>
  <g id="Bold-M" transform="matrix(1 0 0 1 2273.06 1126)">
   <path d="M33.8867 4.29688L95.2637 4.29688C112.256 4.29688 125.098-8.64258 125.098-25C125.098-41.6016 112.061-54.3457 94.8242-54.3457C89.0137-65.5762 78.3203-73.9746 62.0605-73.9746C42.627-73.9746 27.3438-59.6191 25.0488-41.3574C15.7715-38.2812 8.74023-30.1758 8.74023-19.1895C8.74023-6.00586 18.5547 4.29688 33.8867 4.29688ZM34.1309-7.56836C25.0977-7.56836 20.6055-12.4023 20.6055-18.9453C20.6055-24.6582 24.1211-29.1504 31.9824-31.2012C35.0098-31.9824 35.9375-33.3496 36.3281-36.4258C38.2812-52.6367 48.9258-62.1582 62.0605-62.1582C72.0215-62.1582 80.2246-56.543 85.5469-46.1914C86.8652-43.6035 88.3789-42.6758 91.5527-42.6758C106.104-42.6758 113.281-34.7168 113.281-24.7559C113.281-15.1367 105.859-7.56836 95.166-7.56836Z"/>
  </g>
  <g id="Semibold-M" transform="matrix(1 0 0 1 1977.23 1126)">
   <path d="M33.1055 3.66211L94.1895 3.66211C110.791 3.66211 123.34-8.98438 123.34-24.8535C123.34-41.1133 110.4-53.3203 93.4082-53.3203C87.5-64.8438 76.5625-73.0469 61.084-73.0469C42.041-73.0469 26.8555-58.6914 24.8047-40.4297C15.6738-37.5488 8.74023-29.6387 8.74023-18.8965C8.74023-6.29883 18.0664 3.66211 33.1055 3.66211ZM33.2031-6.73828C23.8281-6.73828 19.1406-11.8164 19.1406-18.6035C19.1406-24.4141 22.6074-29.1504 30.6641-31.2988C33.5449-32.0312 34.4727-33.3984 34.8145-36.3281C36.4746-52.4414 47.6074-62.6465 61.084-62.6465C71.4355-62.6465 79.7852-56.8848 85.1074-46.3867C86.377-43.8965 87.8418-43.0176 90.918-43.0176C105.42-43.0176 112.939-34.7656 112.939-24.6094C112.939-14.6484 105.176-6.73828 94.2871-6.73828Z"/>
  </g>
  <g id="Medium-M" transform="matrix(1 0 0 1 1681.17 1126)">
   <path d="M32.4707 3.17383L93.3594 3.17383C109.717 3.17383 122.021-9.22852 122.021-24.7559C122.021-40.7227 109.131-52.5391 92.3828-52.5391C86.377-64.3555 75.293-72.3633 60.4004-72.3633C41.6504-72.3633 26.4648-57.959 24.6094-39.7461C15.5762-37.0117 8.74023-29.1992 8.74023-18.6523C8.74023-6.49414 17.6758 3.17383 32.4707 3.17383ZM32.5195-6.10352C22.8516-6.10352 18.0176-11.4258 18.0176-18.4082C18.0176-24.2188 21.4844-29.1992 29.6387-31.3477C32.4707-32.0801 33.3984-33.3984 33.6426-36.2793C35.1074-52.2949 46.582-63.0371 60.4004-63.0371C70.9961-63.0371 79.4922-57.1777 84.7656-46.5332C85.9863-44.0918 87.4512-43.2129 90.4297-43.2129C104.932-43.2129 112.744-34.8145 112.744-24.5117C112.744-14.2578 104.639-6.10352 93.6523-6.10352Z"/>
  </g>
  <g id="Regular-M" transform="matrix(1 0 0 1 1385.34 1126)">
   <path d="M31.6895 2.58789L92.2852 2.58789C108.301 2.58789 120.264-9.57031 120.264-24.6582C120.264-40.1855 107.52-51.5625 90.9668-51.5625C84.8633-63.623 73.5352-71.3867 59.4727-71.3867C41.0645-71.3867 25.9277-57.0312 24.3652-38.8672C15.4785-36.3281 8.74023-28.6133 8.74023-18.3105C8.74023-6.78711 17.1387 2.58789 31.6895 2.58789ZM31.5918-5.27344C21.582-5.27344 16.5527-10.8398 16.5527-18.0664C16.5527-23.9746 19.9707-29.1992 28.2715-31.4453C31.0059-32.1289 31.9824-33.3984 32.1777-36.1816C33.3008-52.0996 45.3125-63.5742 59.4727-63.5742C70.4102-63.5742 79.0527-57.5684 84.3262-46.7285C85.498-44.3848 86.9141-43.5547 89.7949-43.5547C104.248-43.5547 112.402-34.8145 112.402-24.4141C112.402-13.7695 103.906-5.27344 92.7734-5.27344Z"/>
  </g>
  <g id="Light-M" transform="matrix(1 0 0 1 1089.05 1126)">
   <path d="M31.0547 1.5625L91.9434 1.5625C107.617 1.5625 119.434-10.2539 119.434-25C119.434-40.1367 106.885-51.2207 90.6738-51.2207C84.5703-63.5254 73.5352-71.3867 59.1309-71.3867C41.0645-71.3867 26.2207-57.0312 24.6582-38.8672C15.7227-36.377 8.74023-28.9062 8.74023-18.6523C8.74023-7.51953 16.9434 1.5625 31.0547 1.5625ZM30.957-4.39453C20.3125-4.39453 14.6973-10.6445 14.6973-18.5059C14.6973-25.2441 18.9453-30.9082 27.4414-33.1543C29.6875-33.7402 30.4688-34.7656 30.6641-36.9629C31.7383-53.1738 44.4336-65.4297 59.1309-65.4297C71.1426-65.4297 80.1758-58.7402 85.4492-47.8516C86.4258-45.8008 87.6465-45.1172 90.0391-45.1172C104.346-45.1172 113.428-35.9863 113.428-24.8047C113.428-13.5254 104.248-4.39453 92.2852-4.39453Z"/>
  </g>
  <g id="Thin-M" transform="matrix(1 0 0 1 792.897 1126)">
   <path d="M30.1758 0.244141L91.5039 0.244141C106.641 0.244141 118.311-11.1328 118.311-25.4395C118.311-40.0391 106.104-50.7812 90.2344-50.7812C84.1309-63.3301 73.5352-71.3867 58.6914-71.3867C41.0645-71.3867 26.6113-57.0312 25.0977-38.8672C16.0156-36.4746 8.74023-29.2969 8.74023-19.0918C8.74023-8.49609 16.6016 0.244141 30.1758 0.244141ZM30.127-3.27148C18.6523-3.27148 12.2559-10.4004 12.2559-19.043C12.2559-26.9043 17.5781-33.1543 26.2695-35.4492C27.9785-35.8887 28.5645-36.5723 28.6133-38.0371C29.5898-54.5898 43.2617-67.8711 58.6914-67.8711C72.1191-67.8711 81.6406-60.3027 86.9629-49.2676C87.6953-47.7539 88.5742-47.2168 90.4297-47.2168C104.541-47.2168 114.795-37.5488 114.795-25.293C114.795-13.1836 104.639-3.27148 91.6504-3.27148Z"/>
  </g>
  <g id="Ultralight-M" transform="matrix(1 0 0 1 496.454 1126)">
   <path d="M29.6875-0.390625L91.3086-0.390625C106.152-0.390625 117.773-11.6211 117.773-25.6836C117.773-39.9902 105.664-50.5859 89.9902-50.5859C83.8867-63.2324 73.5352-71.3867 58.4473-71.3867C41.0645-71.3867 26.8066-57.0312 25.3418-38.8672C16.1621-36.5234 8.74023-29.4922 8.74023-19.3359C8.74023-8.98438 16.4551-0.390625 29.6875-0.390625ZM29.6875-2.68555C17.7734-2.68555 10.9863-10.2539 10.9863-19.3359C10.9863-27.7832 16.8457-34.2773 25.6836-36.6211C27.0996-36.9629 27.5391-37.5 27.5879-38.623C28.5156-55.3223 42.6758-69.1406 58.4473-69.1406C72.6074-69.1406 82.4219-61.1328 87.6953-50.0488C88.3301-48.7305 89.0625-48.291 90.5762-48.291C104.59-48.291 115.479-38.3301 115.479-25.5371C115.479-12.9883 104.883-2.68555 91.3086-2.68555Z"/>
  </g>
  <g id="Black-S" transform="matrix(1 0 0 1 2879.15 696)">
   <path d="M28.1738-2.97852L76.8066-2.97852C90.8691-2.97852 101.66-13.7207 101.66-27.4902C101.66-41.3086 91.1621-52.2461 77.1484-52.2461C72.8516-60.4492 64.8926-67.5293 50.5371-67.5293C34.5215-67.5293 22.4609-56.2988 20.1172-41.8457C12.5488-39.0625 6.83594-32.4219 6.83594-23.291C6.83594-11.7676 15.5762-2.97852 28.1738-2.97852ZM28.6621-15.2832C22.2656-15.2832 19.1406-18.5059 19.1406-23.0957C19.1406-27.4414 21.9727-30.3711 27.832-31.8848C30.4688-32.5684 31.1035-33.7402 31.543-36.377C33.6914-49.2188 41.0645-55.2246 50.5371-55.2246C57.6172-55.2246 63.6719-51.123 67.9199-43.3594C69.0918-41.2109 70.3125-40.4297 72.998-40.4297C84.4727-40.4297 89.3555-34.7168 89.3555-27.2461C89.3555-20.459 84.375-15.2832 76.3184-15.2832Z"/>
  </g>
  <g id="Heavy-S" transform="matrix(1 0 0 1 2583.27 696)">
   <path d="M27.4414-3.4668L75.7812-3.4668C89.5508-3.4668 100-13.9648 100-27.2949C100-40.8203 89.5996-51.2695 75.7812-51.2695C71.3867-59.7656 63.1836-66.6016 49.6582-66.6016C33.9844-66.6016 21.9238-55.3711 19.8242-40.9668C12.4023-38.3301 6.83594-31.8359 6.83594-22.9492C6.83594-11.9629 15.0879-3.4668 27.4414-3.4668ZM27.832-14.5508C21.1426-14.5508 17.9199-17.9688 17.9199-22.7539C17.9199-27.0508 20.6055-30.2246 26.6113-31.7871C29.1504-32.4219 29.834-33.5938 30.2246-36.1816C32.0801-48.9258 39.8438-55.5176 49.6582-55.5176C56.9336-55.5176 63.1348-51.3672 67.334-43.457C68.457-41.3086 69.7266-40.5762 72.3633-40.5762C83.7891-40.5762 88.916-34.6191 88.916-27.0996C88.916-20.0195 83.6426-14.5508 75.5371-14.5508Z"/>
  </g>
  <g id="Bold-S" transform="matrix(1 0 0 1 2287.49 696)">
   <path d="M26.6602-4.05273L74.6094-4.05273C88.0371-4.05273 98.1445-14.2578 98.1445-27.1484C98.1445-40.2344 87.8418-50.1953 74.2676-50.1953C69.7266-58.9844 61.2793-65.5762 48.6328-65.5762C33.3496-65.5762 21.2891-54.2969 19.5312-39.9902C12.2559-37.5488 6.83594-31.1523 6.83594-22.5586C6.83594-12.1582 14.5508-4.05273 26.6602-4.05273ZM26.8555-13.7207C19.873-13.7207 16.5039-17.3828 16.5039-22.3633C16.5039-26.6113 19.043-30.0293 25.1953-31.6406C27.6855-32.3242 28.418-33.4473 28.7598-35.9863C30.2734-48.584 38.4766-55.8594 48.6328-55.8594C56.2012-55.8594 62.5488-51.6113 66.6992-43.5547C67.8223-41.4551 69.043-40.7227 71.582-40.7227C83.0566-40.7227 88.4766-34.5215 88.4766-26.9043C88.4766-19.5312 82.8125-13.7207 74.6094-13.7207Z"/>
  </g>
  <g id="Semibold-S" transform="matrix(1 0 0 1 1991.44 696)">
   <path d="M26.123-4.44336L73.8281-4.44336C87.0117-4.44336 96.8262-14.4531 96.8262-27.002C96.8262-39.8438 86.6211-49.4629 73.2422-49.4629C68.6035-58.4473 59.9121-64.8438 47.9492-64.8438C32.9102-64.8438 20.8984-53.5645 19.2871-39.2578C12.1582-37.0117 6.83594-30.7129 6.83594-22.3145C6.83594-12.3047 14.209-4.44336 26.123-4.44336ZM26.2207-13.1836C19.043-13.1836 15.5273-16.9434 15.5273-22.0703C15.5273-26.3184 18.0176-29.9316 24.2676-31.5918C26.6602-32.2266 27.4414-33.3008 27.7344-35.8398C29.0039-48.3398 37.5488-56.1035 47.9492-56.1035C55.7129-56.1035 62.1094-51.8066 66.2598-43.6035C67.334-41.5527 68.5547-40.8203 71.0938-40.8203C82.5195-40.8203 88.1348-34.4727 88.1348-26.8066C88.1348-19.1895 82.2266-13.1836 74.0234-13.1836Z"/>
  </g>
  <g id="Medium-S" transform="matrix(1 0 0 1 1695.21 696)">
   <path d="M25.6836-4.73633L73.2422-4.73633C86.2305-4.73633 95.8496-14.5996 95.8496-26.9043C95.8496-39.5508 85.7422-48.9258 72.4609-48.9258C67.7734-58.0566 58.9355-64.3066 47.4121-64.3066C32.6172-64.3066 20.5566-53.0273 19.1406-38.7695C12.1094-36.5723 6.83594-30.3711 6.83594-22.0703C6.83594-12.4023 13.916-4.73633 25.6836-4.73633ZM25.6836-12.7441C18.3594-12.7441 14.8438-16.6504 14.8438-21.875C14.8438-26.0742 17.1875-29.834 23.5352-31.4941C25.8789-32.1289 26.709-33.252 26.9531-35.7422C28.0762-48.1445 36.8164-56.2988 47.4121-56.2988C55.3223-56.2988 61.8164-51.9531 65.918-43.6523C66.9922-41.6016 68.2129-40.8691 70.7031-40.8691C82.1289-40.8691 87.8906-34.4238 87.8906-26.709C87.8906-18.8965 81.8359-12.7441 73.5352-12.7441Z"/>
  </g>
  <g id="Regular-S" transform="matrix(1 0 0 1 1399.14 696)">
   <path d="M25.1465-5.12695L72.4609-5.12695C85.2051-5.12695 94.5801-14.7949 94.5801-26.7578C94.5801-39.1602 84.5215-48.1934 71.4355-48.1934C66.6504-57.5684 57.6172-63.5742 46.7285-63.5742C32.1777-63.5742 20.166-52.2949 18.8965-38.0859C12.0117-36.0352 6.83594-29.9316 6.83594-21.8262C6.83594-12.5488 13.5254-5.12695 25.1465-5.12695ZM25.0488-12.1582C17.5293-12.1582 13.8672-16.2109 13.8672-21.582C13.8672-25.7812 16.1621-29.6875 22.5586-31.3965C24.9023-32.0312 25.7324-33.1055 25.9277-35.5957C26.8555-47.9004 35.8887-56.543 46.7285-56.543C54.7852-56.543 61.4258-52.1484 65.5273-43.7012C66.5039-41.6992 67.7246-40.9668 70.2148-40.9668C81.5918-40.9668 87.5488-34.375 87.5488-26.5625C87.5488-18.5547 81.25-12.1582 72.9004-12.1582Z"/>
  </g>
  <g id="Light-S" transform="matrix(1 0 0 1 1102.79 696)">
   <path d="M24.5605-6.00586L72.168-6.00586C84.5703-6.00586 93.8477-15.3809 93.8477-27.0508C93.8477-39.1113 83.9844-47.9004 71.1426-47.9004C66.3574-57.4219 57.6172-63.5742 46.4355-63.5742C32.1777-63.5742 20.4102-52.2949 19.1895-38.0859C12.207-36.084 6.83594-30.1758 6.83594-22.1191C6.83594-13.2324 13.3301-6.00586 24.5605-6.00586ZM24.5117-11.4258C16.4062-11.4258 12.207-16.0645 12.207-21.9727C12.207-26.9043 15.2344-31.2012 21.8262-32.959C23.7305-33.4473 24.4629-34.3262 24.6094-36.2793C25.4395-48.877 35.1074-58.2031 46.4355-58.2031C55.4688-58.2031 62.4023-53.1738 66.5039-44.6777C67.334-42.9688 68.3594-42.3828 70.459-42.3828C81.6895-42.3828 88.4766-35.4004 88.4766-26.9043C88.4766-18.3105 81.543-11.4258 72.4609-11.4258Z"/>
  </g>
  <g id="Thin-S" transform="matrix(1 0 0 1 806.544 696)">
   <path d="M23.7793-7.17773L71.7773-7.17773C83.7402-7.17773 92.9199-16.2109 92.9199-27.4902C92.9199-39.0137 83.252-47.5098 70.752-47.5098C65.9668-57.2754 57.6172-63.5742 46.0449-63.5742C32.1777-63.5742 20.752-52.2949 19.5801-38.0859C12.4512-36.1816 6.83594-30.5176 6.83594-22.5098C6.83594-14.1113 13.0859-7.17773 23.7793-7.17773ZM23.7793-10.4004C14.8926-10.4004 10.0586-15.8203 10.0586-22.4609C10.0586-28.418 14.0137-33.1543 20.8008-34.9609C22.2656-35.3516 22.7051-35.9375 22.8027-37.2559C23.584-50.1465 34.082-60.3516 46.0449-60.3516C56.2988-60.3516 63.6719-54.5898 67.8223-45.9473C68.457-44.6777 69.1895-44.2383 70.752-44.2383C81.8359-44.2383 89.6484-36.7188 89.6484-27.3438C89.6484-18.0176 81.8848-10.4004 71.9238-10.4004Z"/>
  </g>
  <g id="Ultralight-S" transform="matrix(1 0 0 1 510.102 696)">
   <path d="M23.3887-7.76367L71.582-7.76367C83.3008-7.76367 92.3828-16.6016 92.3828-27.6855C92.3828-38.9648 82.9102-47.3145 70.5566-47.3145C65.7715-57.1777 57.6172-63.5742 45.8496-63.5742C32.1777-63.5742 20.9473-52.2949 19.7754-38.0859C12.5977-36.2305 6.83594-30.6641 6.83594-22.7051C6.83594-14.5508 12.9395-7.76367 23.3887-7.76367ZM23.3887-9.86328C14.1602-9.86328 8.93555-15.7227 8.93555-22.7051C8.93555-29.1504 13.3789-34.1797 20.2637-35.9863C21.4844-36.2793 21.8262-36.7676 21.875-37.7441C22.6074-50.7812 33.5449-61.4746 45.8496-61.4746C56.7383-61.4746 64.3555-55.3223 68.5059-46.6309C68.9941-45.5566 69.6289-45.2148 70.8984-45.2148C81.9336-45.2148 90.2832-37.4512 90.2832-27.5879C90.2832-17.8711 82.0801-9.86328 71.582-9.86328Z"/>
  </g>
 </g>
</svg>
