<?xml version="1.0" encoding="UTF-8" standalone="no"?>
<svg
   xmlns:dc="http://purl.org/dc/elements/1.1/"
   xmlns:cc="http://creativecommons.org/ns#"
   xmlns:rdf="http://www.w3.org/1999/02/22-rdf-syntax-ns#"
   xmlns:svg="http://www.w3.org/2000/svg"
   xmlns="http://www.w3.org/2000/svg"
   viewBox="0 0 1066.6667 1066.6667"
   height="1066.6667"
   width="1066.6667"
   xml:space="preserve"
   id="svg2"
   version="1.1"><metadata
     id="metadata8"><rdf:RDF><cc:Work
         rdf:about=""><dc:format>image/svg+xml</dc:format><dc:type
           rdf:resource="http://purl.org/dc/dcmitype/StillImage" /></cc:Work></rdf:RDF></metadata><defs
     id="defs6" /><g
     transform="matrix(1.3333333,0,0,-1.3333333,0,1066.6667)"
     id="g10"><g
       transform="scale(0.1)"
       id="g12"><path
         id="path14"
         style="fill:#26333a;fill-opacity:1;fill-rule:nonzero;stroke:none"
         d="m 2999.97,4284.9 c -59.34,-64.29 -147.21,-167.19 -163.9,-229.15 -25.65,-95.22 16.06,-189.26 93.16,-210.02 77.09,-20.77 160.38,39.59 186.03,134.82 16.81,62.43 -14.14,198.73 -37.45,285.18 -9.38,34.81 -53.4,45.67 -77.84,19.17 v 0" /><path
         id="path16"
         style="fill:#26333a;fill-opacity:1;fill-rule:nonzero;stroke:none"
         d="m 3320.47,3923.2 c -59.34,-64.29 -147.21,-167.18 -163.91,-229.16 -25.64,-95.21 16.06,-189.25 93.16,-210.01 77.09,-20.77 160.39,39.59 186.03,134.82 16.82,62.43 -14.13,198.73 -37.45,285.18 -9.38,34.81 -53.39,45.67 -77.83,19.17 v 0" /><path
         id="path18"
         style="fill:#26333a;fill-opacity:1;fill-rule:nonzero;stroke:none"
         d="m 3846.99,4312.37 c -59.33,-64.29 -147.2,-167.18 -163.9,-229.15 -25.65,-95.22 16.06,-189.26 93.15,-210.02 77.1,-20.77 160.39,39.59 186.05,134.82 16.8,62.43 -14.15,198.73 -37.46,285.18 -9.38,34.81 -53.39,45.67 -77.84,19.17 v 0" /><path
         id="path20"
         style="fill:#26333a;fill-opacity:1;fill-rule:nonzero;stroke:none"
         d="m 4149.17,3868.26 c -59.34,-64.3 -147.21,-167.19 -163.9,-229.16 -25.65,-95.21 16.06,-189.25 93.16,-210.01 77.09,-20.77 160.38,39.59 186.03,134.82 16.82,62.43 -14.14,198.73 -37.45,285.18 -9.38,34.81 -53.4,45.67 -77.84,19.17 v 0" /><path
         id="path22"
         style="fill:#26333a;fill-opacity:1;fill-rule:nonzero;stroke:none"
         d="m 4736.04,4136.21 c 16.82,62.44 -14.14,198.73 -37.45,285.2 -9.38,34.8 -53.38,45.66 -77.84,19.17 -59.33,-64.31 -147.21,-167.19 -163.89,-229.16 -25.65,-95.23 16.05,-189.25 93.15,-210.02 77.09,-20.77 160.38,39.6 186.03,134.81 v 0" /><path
         id="path24"
         style="fill:#26333a;fill-opacity:1;fill-rule:nonzero;stroke:none"
         d="m 5209.85,5382.66 c -69.86,251.04 -300.12,435.28 -573.44,435.28 -133.23,0 -256.22,-43.78 -355.4,-117.73 -105.91,164.48 -290.63,273.4 -500.78,273.4 -287.69,0 -527.7,-204.11 -583.14,-475.42 -55.88,17.38 -115.29,26.73 -176.88,26.73 -328.73,0 -595.21,-266.48 -595.21,-595.2 0,-293.53 212.48,-537.41 492.02,-586.27 2.96,3.24 5.86,6.45 8.93,9.76 27.66,29.98 66.83,47.18 107.45,47.18 44.4,0 85.2,-20.08 112.47,-52.55 98.93,21.27 188.74,67.1 262.69,130.84 41.99,-115.19 118.56,-213.73 217.12,-283.14 26.45,42.63 70.98,102.46 147.29,185.14 27.66,29.98 66.82,47.18 107.45,47.18 66.19,0 124.44,-44.59 141.66,-108.43 27.35,-101.42 39.38,-173.15 43.68,-224.07 110.99,18.36 211.58,67.39 292.81,138.15 0.37,1.36 0.65,2.74 1.02,4.11 6.45,23.9 26.05,96.7 187.14,271.27 27.66,29.98 66.83,47.16 107.46,47.16 66.19,0 124.44,-44.58 141.66,-108.42 21.99,-81.56 34.08,-143.94 40.21,-191.73 46.04,-11.42 94.17,-17.53 143.73,-17.53 328.73,0 595.21,266.47 595.21,595.19 0,247.17 -150.66,459.14 -365.15,549.1 v 0" /><path
         id="path26"
         style="fill:#26333a;fill-opacity:1;fill-rule:nonzero;stroke:none"
         d="m 4831.37,3923.2 c -59.34,-64.29 -147.21,-167.18 -163.9,-229.16 -25.65,-95.21 16.06,-189.25 93.15,-210.01 77.09,-20.77 160.39,39.59 186.04,134.82 16.81,62.43 -14.14,198.73 -37.45,285.18 -9.39,34.81 -53.4,45.67 -77.84,19.17 v 0" /><path
         id="path28"
         style="fill:#49494a;fill-opacity:1;fill-rule:nonzero;stroke:none"
         d="m 3475.49,1021.19 h 21.46 l 63.36,-193.069 66.02,192.419 h 27.38 l -82.5,-232.688 h -22.13 l -63.36,187.468 -63.69,-187.468 h -21.8 l -82.5,232.688 h 28.38 l 66.02,-192.419 63.36,193.069" /><path
         id="path30"
         style="fill:#49494a;fill-opacity:1;fill-rule:nonzero;stroke:none"
         d="m 3800.21,884.23 c -2.63,31.02 -20.46,58.079 -54.45,58.079 -29.71,0 -52.15,-24.75 -55.45,-58.079 z m -49.84,-76.57 c 23.44,0 39.94,9.57 53.81,24.09 l 15.84,-14.191 c -17.17,-19.137 -37.95,-32.02 -70.29,-32.02 -46.88,0 -85.16,35.973 -85.16,89.121 0,49.5 34.65,89.11 81.86,89.11 50.48,0 79.53,-40.258 79.53,-90.438 0,-2.301 0,-4.953 -0.33,-7.922 h -135.32 c 3.64,-36.961 30.04,-57.75 60.06,-57.75" /><path
         id="path32"
         style="fill:#49494a;fill-opacity:1;fill-rule:nonzero;stroke:none"
         d="m 3883.36,840.332 c 0,-21.793 19.78,-34.32 42.89,-34.32 31.37,0 57.11,19.14 57.11,46.199 v 16.5 c -12.54,3.629 -29.38,7.269 -50.18,7.269 -32.01,0 -49.82,-13.871 -49.82,-35.648 z m -2.99,87.129 -7.58,20.789 c 18.81,8.59 37.29,14.199 62.05,14.199 46.53,0 72.6,-23.769 72.6,-68.648 V 789.5 h -24.41 v 25.738 c -11.88,-15.496 -31.68,-29.367 -61.72,-29.367 -31.68,0 -63.71,17.82 -63.71,53.469 0,36.301 29.7,55.449 72.95,55.449 21.77,0 37.3,-2.969 52.48,-7.258 v 5.938 c 0,30.691 -18.81,46.531 -50.82,46.531 -20.14,0 -35.98,-5.27 -51.84,-12.539" /><path
         id="path34"
         style="fill:#49494a;fill-opacity:1;fill-rule:nonzero;stroke:none"
         d="m 4094.22,838.02 c 0,-20.79 11.56,-28.379 28.73,-28.379 8.57,0 15.84,1.648 24.75,5.941 v -21.793 c -8.91,-4.617 -18.48,-7.258 -30.71,-7.258 -27.38,0 -48.18,13.539 -48.18,48.188 v 102.98 h -23.75 v 22.442 h 23.75 v 51.479 h 25.41 v -51.479 h 54.14 v -22.442 h -54.14 V 838.02" /><path
         id="path36"
         style="fill:#49494a;fill-opacity:1;fill-rule:nonzero;stroke:none"
         d="m 4218.63,789.5 h -25.41 v 240.94 h 25.41 V 930.43 c 11.23,18.492 29.05,33.34 58.42,33.34 41.27,0 65.35,-27.731 65.35,-68.321 V 789.5 h -25.41 v 99.68 c 0,31.679 -17.17,51.48 -47.2,51.48 -29.38,0 -51.16,-21.449 -51.16,-53.461 V 789.5" /><path
         id="path38"
         style="fill:#49494a;fill-opacity:1;fill-rule:nonzero;stroke:none"
         d="m 4521.58,884.23 c -2.63,31.02 -20.47,58.079 -54.45,58.079 -29.71,0 -52.15,-24.75 -55.45,-58.079 z m -49.84,-76.57 c 23.44,0 39.94,9.57 53.81,24.09 l 15.84,-14.191 c -17.17,-19.137 -37.95,-32.02 -70.3,-32.02 -46.87,0 -85.15,35.973 -85.15,89.121 0,49.5 34.65,89.11 81.85,89.11 50.49,0 79.53,-40.258 79.53,-90.438 0,-2.301 0,-4.953 -0.33,-7.922 h -135.31 c 3.63,-36.961 30.04,-57.75 60.06,-57.75" /><path
         id="path40"
         style="fill:#49494a;fill-opacity:1;fill-rule:nonzero;stroke:none"
         d="m 4617.27,789.5 h -25.41 v 170.641 h 25.41 v -44.559 c 12.53,28.379 37.3,48.84 69.64,47.527 v -27.398 h -1.99 c -37.28,0 -67.65,-26.742 -67.65,-78.219 V 789.5" /><path
         id="path42"
         style="fill:#49494a;fill-opacity:1;fill-rule:nonzero;stroke:none"
         d="m 3098.68,1664.06 h 70.9 c 22.07,0 39.16,5.62 51.27,16.85 12.11,11.23 18.16,26.71 18.16,46.43 0,20.12 -5.71,35.94 -17.13,47.46 -11.43,11.53 -28.96,17.29 -52.59,17.29 h -70.61 z m 70.02,-71.19 h -70.02 v -156.15 h -87.89 v 426.56 h 158.5 c 50.39,0 89.25,-11.23 116.6,-33.69 27.34,-22.46 41.01,-54.2 41.01,-95.22 0,-29.1 -6.29,-53.36 -18.89,-72.8 -12.6,-19.43 -31.69,-34.91 -57.28,-46.43 l 92.29,-174.32 v -4.1 h -94.34 l -79.98,156.15" /><path
         id="path44"
         style="fill:#49494a;fill-opacity:1;fill-rule:nonzero;stroke:none"
         d="m 3501.81,1495.61 c 12.5,0 24.02,2.78 34.57,8.35 10.54,5.56 18.36,13.03 23.43,22.41 v 54.49 h -31.64 c -42.38,0 -64.94,-14.65 -67.67,-43.95 l -0.29,-4.98 c 0,-10.54 3.71,-19.23 11.13,-26.07 7.42,-6.84 17.58,-10.25 30.47,-10.25 z m 70.02,-58.89 c -3.91,7.62 -6.74,17.09 -8.5,28.42 -20.51,-22.85 -47.17,-34.28 -79.98,-34.28 -31.06,0 -56.79,8.98 -77.2,26.95 -20.41,17.97 -30.61,40.63 -30.61,67.97 0,33.59 12.45,59.38 37.35,77.34 24.9,17.97 60.89,27.06 107.96,27.25 h 38.96 v 18.17 c 0,14.64 -3.76,26.36 -11.27,35.15 -7.52,8.79 -19.39,13.18 -35.6,13.18 -14.26,0 -25.44,-3.41 -33.55,-10.25 -8.1,-6.83 -12.15,-16.21 -12.15,-28.12 h -84.67 c 0,18.36 5.66,35.35 16.99,50.97 11.33,15.63 27.34,27.88 48.05,36.77 20.7,8.89 43.94,13.33 69.72,13.33 39.07,0 70.07,-9.81 93.02,-29.44 22.95,-19.63 34.43,-47.22 34.43,-82.77 v -137.4 c 0.19,-30.08 4.39,-52.83 12.59,-68.26 v -4.98 h -85.54" /><path
         id="path46"
         style="fill:#49494a;fill-opacity:1;fill-rule:nonzero;stroke:none"
         d="m 3799.17,1436.72 h -84.96 v 316.99 h 84.96 z m -89.94,399.02 c 0,12.7 4.25,23.15 12.74,31.35 8.5,8.2 20.07,12.3 34.72,12.3 14.45,0 25.98,-4.1 34.57,-12.3 8.59,-8.2 12.89,-18.65 12.89,-31.35 0,-12.89 -4.35,-23.44 -13.04,-31.64 -8.69,-8.2 -20.16,-12.3 -34.42,-12.3 -14.26,0 -25.73,4.1 -34.42,12.3 -8.7,8.2 -13.04,18.75 -13.04,31.64" /><path
         id="path48"
         style="fill:#49494a;fill-opacity:1;fill-rule:nonzero;stroke:none"
         d="m 3946.83,1753.71 2.63,-36.62 c 22.66,28.32 53.03,42.48 91.12,42.48 33.59,0 58.59,-9.86 75,-29.59 16.4,-19.73 24.8,-49.22 25.19,-88.48 v -204.78 h -84.67 v 202.73 c 0,17.97 -3.9,31.01 -11.72,39.11 -7.81,8.11 -20.8,12.16 -38.96,12.16 -23.83,0 -41.7,-10.15 -53.61,-30.47 v -223.53 h -84.67 v 316.99 h 79.69" /><path
         id="path50"
         style="fill:#49494a;fill-opacity:1;fill-rule:nonzero;stroke:none"
         d="m 4228.08,1436.72 v 254.88 h -47.17 v 62.11 h 47.17 v 26.95 c 0,35.55 10.2,63.14 30.61,82.77 20.41,19.63 48.98,29.44 85.69,29.44 11.72,0 26.08,-1.95 43.07,-5.86 l -0.88,-65.62 c -7.03,1.75 -15.62,2.63 -25.78,2.63 -31.83,0 -47.75,-14.94 -47.75,-44.82 v -25.49 h 62.99 v -62.11 h -62.99 v -254.88 h -84.96" /><path
         id="path52"
         style="fill:#49494a;fill-opacity:1;fill-rule:nonzero;stroke:none"
         d="m 4533.64,1495.61 c 12.5,0 24.03,2.78 34.57,8.35 10.55,5.56 18.36,13.03 23.44,22.41 v 54.49 h -31.64 c -42.38,0 -64.94,-14.65 -67.68,-43.95 l -0.29,-4.98 c 0,-10.54 3.71,-19.23 11.13,-26.07 7.43,-6.84 17.58,-10.25 30.47,-10.25 z m 70.02,-58.89 c -3.9,7.62 -6.74,17.09 -8.49,28.42 -20.51,-22.85 -47.17,-34.28 -79.98,-34.28 -31.06,0 -56.79,8.98 -77.2,26.95 -20.41,17.97 -30.62,40.63 -30.62,67.97 0,33.59 12.45,59.38 37.36,77.34 24.9,17.97 60.89,27.06 107.96,27.25 h 38.96 v 18.17 c 0,14.64 -3.76,26.36 -11.28,35.15 -7.52,8.79 -19.38,13.18 -35.59,13.18 -14.26,0 -25.44,-3.41 -33.55,-10.25 -8.1,-6.83 -12.16,-16.21 -12.16,-28.12 h -84.67 c 0,18.36 5.67,35.35 17,50.97 11.32,15.63 27.34,27.88 48.04,36.77 20.71,8.89 43.95,13.33 69.73,13.33 39.06,0 70.07,-9.81 93.02,-29.44 22.95,-19.63 34.42,-47.22 34.42,-82.77 v -137.4 c 0.2,-30.08 4.4,-52.83 12.6,-68.26 v -4.98 h -85.55" /><path
         id="path54"
         style="fill:#49494a;fill-opacity:1;fill-rule:nonzero;stroke:none"
         d="m 4831.01,1436.72 h -84.97 v 450 h 84.97 v -450" /><path
         id="path56"
         style="fill:#49494a;fill-opacity:1;fill-rule:nonzero;stroke:none"
         d="m 4990.09,1436.72 h -84.96 v 450 h 84.96 v -450" /></g></g></svg>